<svg xmlns="http://www.w3.org/2000/svg" width="120" height="120" viewBox="0 0 120 120" fill="none">
<path d="M34.5198 15.0217C29.9126 15.2412 25.5836 16.2413 21.8665 17.9427C17.8925 19.7631 14.4416 22.4036 11.5964 25.8064C6.50259 31.8985 4.35807 38.9511 5.16573 46.9763C5.85404 53.8368 8.49115 60.5784 13.2362 67.6034C18.0607 74.7414 24.4517 81.4464 33.0574 88.3922C38.4969 92.7829 44.5789 97.0334 51.5419 101.311C54.283 102.994 58.7741 105.626 59.2574 105.833C59.5512 105.958 59.9061 106.019 60.1935 105.995C60.6923 105.952 60.8055 105.897 63.1153 104.553C73.5658 98.4726 81.9881 92.6763 89.3703 86.4805C93.7573 82.7972 97.6121 79.0773 100.8 75.4549C103.076 72.8662 105.009 70.366 106.793 67.7071C113.067 58.3556 115.632 49.9126 114.87 41.122C114.643 38.5334 114.126 36.1581 113.319 33.9932C112.551 31.9321 111.297 29.6604 109.715 27.4621C107.582 24.4983 105.101 22.0865 102.219 20.1717C97.4254 16.9914 91.7046 15.2961 84.8364 15.0187C81.9178 14.8997 78.6627 15.351 75.3127 16.3359C70.1639 17.8512 66.1592 20.3454 63.1948 23.8794C62.4055 24.8245 61.7722 25.7301 60.6892 27.4712C60.371 27.9835 60.0957 28.4042 60.0834 28.4072C60.007 28.4103 59.7194 28.0474 59.5298 27.7059C58.0521 25.0532 56.3848 22.9921 54.3564 21.3029C52.8329 20.0345 50.4833 18.6075 48.2837 17.6165C44.9888 16.1316 41.6114 15.2991 37.8514 15.0522C37.2029 15.0095 35.1685 14.9912 34.5198 15.0217ZM77.4389 28.4225C81.2171 28.7396 85.3473 29.9258 89.6456 31.929C94.8372 34.3499 98.2301 37.0057 100.13 40.1402C101.614 42.5886 102.011 45.0035 101.348 47.5403C100.986 48.9246 100.307 50.2602 99.3864 51.4127C99.0408 51.8427 98.2637 52.6202 97.8293 52.9647C95.8682 54.5258 93.4697 55.2668 90.7562 55.1449C87.0482 54.9801 82.8846 53.1934 79.5498 50.3333C79.0604 49.9156 78.0264 48.8911 77.5276 48.3332C76.2152 46.8665 74.9426 45.1621 73.5536 43.0125C73.3333 42.6679 73.1223 42.363 73.0886 42.3326C72.9968 42.2533 72.8133 42.2655 72.7306 42.3539C72.6573 42.4301 72.4094 43.4027 70.5678 50.7999C70.0017 53.0653 69.9926 53.1141 70.0507 53.1568C70.0844 53.1781 70.2495 53.288 70.4179 53.3977C72.7765 54.9406 74.7682 58.1909 75.7104 62.0236C76.2366 64.1611 76.362 66.2313 76.0623 67.698C75.6339 69.7775 74.3491 71.5033 72.1311 72.973C70.9318 73.7688 69.4938 74.4945 67.4197 75.3452C66.6059 75.6805 66.4866 75.7507 66.4866 75.897C66.4866 76.0587 66.5477 76.1135 67.1383 76.4611C68.5608 77.2935 68.7627 77.4185 69.2093 77.7112C69.7386 78.0619 70.118 78.3363 70.5708 78.6992C71.3326 79.306 72.2136 80.1292 72.437 80.4403C73.0151 81.2421 72.9723 82.0684 72.3207 82.7637C71.8098 83.3064 71.0633 83.6631 70.3383 83.7088C69.5979 83.7545 68.983 83.4314 68.0622 82.5136C67.5237 81.9769 67.2056 81.5897 66.7742 80.9342C66.3612 80.3091 66.4071 80.361 66.355 80.486C66.2846 80.6475 66.1806 81.2238 66.1592 81.5531C66.1226 82.1568 66.2541 83.0777 66.918 86.8129C67.3126 89.0479 67.3921 89.6088 67.4258 90.4413C67.4747 91.6792 67.2239 92.2707 66.5662 92.475C66.4621 92.5085 66.2418 92.5451 66.0736 92.5604C65.682 92.5909 63.3202 92.5451 63.0602 92.4994C62.3596 92.3774 61.8456 92.0328 61.5672 91.5023C61.3867 91.1548 61.3011 90.8681 61.1328 90.0449C60.5699 87.2824 60.5424 87.194 60.2609 87.194C60.0865 87.194 60.0222 87.2732 59.9275 87.5965C59.8602 87.8312 59.5848 89.1607 59.3431 90.426C59.2513 90.9078 59.1045 91.356 58.9577 91.606C58.7893 91.8927 58.4865 92.1701 58.1898 92.3134C57.7217 92.536 57.4524 92.5757 56.1614 92.6122C54.4482 92.6579 54.124 92.6397 53.7843 92.4658C53.2612 92.2006 53.0501 91.4322 53.1449 90.1364C53.2001 89.3863 53.304 88.6545 53.6345 86.6299C54.3227 82.4466 54.3778 81.8977 54.2065 81.0652C54.1637 80.8549 54.1055 80.6262 54.0781 80.5622C54.0322 80.4523 54.023 80.4463 53.9923 80.4981C53.4325 81.4373 52.8849 82.1508 52.2577 82.7606C51.499 83.4954 50.8627 83.8369 50.2538 83.84C49.1312 83.8431 47.938 83.0441 47.6595 82.105C47.5984 81.8977 47.5984 81.5013 47.6566 81.2787C47.782 80.8031 48.0818 80.4036 48.8251 79.7175C50.0765 78.5589 50.9208 77.943 52.7962 76.8148C53.3193 76.5008 53.7751 76.2141 53.815 76.1806C53.8976 76.1013 53.9067 75.9184 53.8302 75.8239C53.7965 75.7873 53.4875 75.647 53.0868 75.4884C50.3242 74.3999 48.5101 73.4455 47.1334 72.354C46.6653 71.982 45.873 71.1801 45.5548 70.7593C44.6675 69.5762 44.2057 68.3749 44.0588 66.8717C44.0129 66.4083 44.0404 65.1124 44.1077 64.5086C44.4351 61.5328 45.4539 58.6178 46.9437 56.3889C47.7758 55.1418 48.7242 54.16 49.7675 53.4648L50.107 53.2392L49.3484 50.3455C47.3873 42.8662 47.3108 42.5764 47.2251 42.5002C47.1303 42.4179 46.9682 42.4118 46.8825 42.4849C46.8488 42.5154 46.6439 42.8204 46.4297 43.1649C44.7777 45.7932 43.2359 47.8331 41.6572 49.4735C38.7111 52.5348 34.5382 54.7911 30.7385 55.3765C29.8696 55.5077 29.6096 55.529 28.6581 55.529C27.7006 55.529 27.2907 55.4955 26.5626 55.3583C23.6042 54.8033 21.114 52.9891 19.6026 50.2907C18.4401 48.2112 18.0546 45.7536 18.5625 43.6528C19.3854 40.2713 21.9644 37.1642 26.1649 34.4993C28.337 33.1212 31.3535 31.6485 34.0426 30.6484C36.9428 29.572 39.5341 28.9378 42.2018 28.6481C42.9483 28.5688 44.588 28.5353 45.2855 28.5872C47.8952 28.7823 50.0275 29.5415 51.912 30.9502C54.2524 32.6942 55.7851 35.1335 56.6203 38.4449C57.0731 40.2286 57.2873 42.0428 57.4158 45.1774C57.48 46.7293 57.7094 50.7266 57.74 50.809C57.7522 50.8456 57.7981 50.8974 57.8409 50.9249C57.9113 50.9737 57.9909 50.9737 58.7527 50.9402C59.3095 50.9127 60.0192 50.9066 60.8819 50.9218L62.176 50.9402L62.2678 50.8517C62.3168 50.8029 62.3565 50.7297 62.3565 50.6901C62.3565 50.6504 62.3963 49.7174 62.4483 48.6197C62.4973 47.5221 62.5523 46.1439 62.5706 45.5584C62.6441 43.0033 62.7267 41.799 62.9103 40.4817C63.5007 36.2191 65.0671 33.115 67.6797 31.0264C69.7019 29.4104 72.0331 28.5566 74.9181 28.3768C75.4871 28.3401 76.7414 28.3646 77.4389 28.4225Z" fill="#E1101A"/>
</svg>
