<svg id="svg-apple" viewBox="0 0 25 24" fill="none" xmlns="http://www.w3.org/2000/svg">
<path d="M16.998 0C15.7185 0.0884995 14.223 0.907495 13.3515 1.97399C12.5565 2.94148 11.9025 4.37847 12.1575 5.77497C13.5555 5.81847 15 4.97997 15.837 3.89548C16.62 2.88598 17.2125 1.45799 16.998 0Z" fill="currentColor"/>
<path d="M22.0553 8.05192C20.8268 6.51143 19.1003 5.61743 17.4698 5.61743C15.3174 5.61743 14.4069 6.64793 12.9114 6.64793C11.3694 6.64793 10.1979 5.62043 8.3364 5.62043C6.50791 5.62043 4.56092 6.73793 3.32643 8.64891C1.59094 11.3399 1.88794 16.3994 4.70042 20.7088C5.70692 22.2508 7.05091 23.9848 8.8089 23.9998C10.3734 24.0148 10.8144 22.9963 12.9339 22.9858C15.0534 22.9738 15.4554 24.0133 17.0169 23.9968C18.7763 23.9833 20.1938 22.0618 21.2003 20.5198C21.9218 19.4144 22.1903 18.8579 22.7498 17.6099C18.6803 16.0604 18.0278 10.2734 22.0553 8.05192Z" fill="currentColor"/>
</svg>
