<svg id="svg-box" viewBox="0 0 20 21" fill="none" xmlns="http://www.w3.org/2000/svg">
<path d="M2.6416 6.90234L9.99992 11.1607L17.3082 6.92732" stroke="currentColor" stroke-linecap="round" stroke-linejoin="round"/>
<path d="M10 18.7107V11.1523" stroke="currentColor" stroke-linecap="round" stroke-linejoin="round"/>
<path d="M8.27501 2.76914L3.82502 5.24417C2.81668 5.8025 1.9917 7.20248 1.9917 8.35248V13.0608C1.9917 14.2108 2.81668 15.6108 3.82502 16.1692L8.27501 18.6442C9.22501 19.1692 10.7833 19.1692 11.7333 18.6442L16.1834 16.1692C17.1917 15.6108 18.0167 14.2108 18.0167 13.0608V8.35248C18.0167 7.20248 17.1917 5.8025 16.1834 5.24417L11.7333 2.76914C10.775 2.23581 9.22501 2.23581 8.27501 2.76914Z" stroke="currentColor" stroke-linecap="round" stroke-linejoin="round"/>
<path d="M14.1666 11.7358V8.68584L6.2583 4.11914" stroke="currentColor" stroke-linecap="round" stroke-linejoin="round"/>
</svg>
