<svg id="svg-car" viewBox="0 0 20 20" fill="none" xmlns="http://www.w3.org/2000/svg">
<path d="M17.4118 6.57988C17.1918 6.14039 16.8538 5.77082 16.4356 5.51257C16.0175 5.25431 15.5357 5.11757 15.0442 5.11765H12.5941C12.4713 4.52011 12.1463 3.9832 11.6737 3.59744C11.2011 3.21168 10.61 3.00067 10 3H1.52941C1.389 3 1.25434 3.05578 1.15506 3.15506C1.05578 3.25435 1 3.389 1 3.52941C1 3.66982 1.05578 3.80448 1.15506 3.90376C1.25434 4.00305 1.389 4.05882 1.52941 4.05882H10C10.4212 4.05882 10.8252 4.22615 11.1231 4.52401C11.4209 4.82186 11.5882 5.22583 11.5882 5.64706V13.5882H7.3C7.22483 13.2239 7.074 12.8794 6.85729 12.577C6.64057 12.2747 6.36279 12.0212 6.04191 11.8329C5.72104 11.6447 5.36422 11.5259 4.99455 11.4843C4.62488 11.4427 4.25058 11.4791 3.89588 11.5913C3.48069 11.7199 3.10434 11.9504 2.80119 12.2619C2.49804 12.5734 2.27776 12.9558 2.16047 13.3744C2.06221 13.7166 2.03397 14.0752 2.07743 14.4286C2.12089 14.7821 2.23517 15.1231 2.41342 15.4314C2.59167 15.7397 2.83024 16.0088 3.11487 16.2228C3.39951 16.4368 3.72436 16.5912 4.07002 16.6768C4.41568 16.7624 4.77505 16.7774 5.12665 16.721C5.47825 16.6646 5.81486 16.5378 6.11637 16.3484C6.41788 16.1589 6.67809 15.9106 6.88146 15.6183C7.08483 15.3259 7.22718 14.9956 7.3 14.6471H11.6412C11.7627 15.2454 12.0873 15.7834 12.5601 16.1698C13.0329 16.5563 13.6247 16.7674 14.2353 16.7674C14.8459 16.7674 15.4377 16.5563 15.9105 16.1698C16.3833 15.7834 16.7079 15.2454 16.8294 14.6471H17.4118C17.833 14.6471 18.237 14.4797 18.5348 14.1819C18.8327 13.884 19 13.48 19 13.0588V10.0073C19.0003 9.84268 18.9622 9.68027 18.8888 9.53294L17.4118 6.57988ZM4.70588 15.7059C4.39176 15.7059 4.08469 15.6127 3.82351 15.4382C3.56232 15.2637 3.35875 15.0157 3.23854 14.7254C3.11833 14.4352 3.08688 14.1159 3.14816 13.8078C3.20945 13.4997 3.36071 13.2167 3.58283 12.9946C3.80495 12.7725 4.08795 12.6212 4.39603 12.5599C4.70412 12.4986 5.02346 12.5301 5.31367 12.6503C5.60389 12.7705 5.85193 12.9741 6.02645 13.2353C6.20097 13.4965 6.29412 13.8035 6.29412 14.1176C6.29356 14.5387 6.12605 14.9423 5.82832 15.2401C5.53058 15.5378 5.12694 15.7053 4.70588 15.7059ZM12.6471 6.17647H15.0442C15.3394 6.1754 15.629 6.25707 15.8802 6.41222C16.1313 6.56736 16.334 6.78978 16.4652 7.05424L17.614 9.35188H12.6481L12.6471 6.17647ZM14.2353 15.7059C13.9212 15.7059 13.6141 15.6127 13.3529 15.4382C13.0917 15.2637 12.8882 15.0157 12.768 14.7254C12.6477 14.4352 12.6163 14.1159 12.6776 13.8078C12.7389 13.4997 12.8901 13.2167 13.1122 12.9946C13.3344 12.7725 13.6174 12.6212 13.9254 12.5599C14.2335 12.4986 14.5529 12.5301 14.8431 12.6503C15.1333 12.7705 15.3813 12.9741 15.5559 13.2353C15.7304 13.4965 15.8235 13.8035 15.8235 14.1176C15.823 14.5387 15.6555 14.9423 15.3577 15.2401C15.06 15.5378 14.6563 15.7053 14.2353 15.7059ZM17.9412 13.0588C17.9412 13.1992 17.8854 13.3339 17.7861 13.4332C17.6868 13.5325 17.5522 13.5882 17.4118 13.5882H16.8294C16.7066 12.9907 16.3816 12.4538 15.909 12.068C15.4364 11.6823 14.8453 11.4713 14.2353 11.4706C13.6608 11.4724 13.1028 11.6629 12.6471 12.0127V10.4118H17.9412V13.0588Z" fill="currentColor"/>
<path d="M4.70772 6.17627H2.06066C1.92025 6.17627 1.78559 6.23205 1.68631 6.33133C1.58703 6.43062 1.53125 6.56527 1.53125 6.70568C1.53125 6.84609 1.58703 6.98075 1.68631 7.08003C1.78559 7.17932 1.92025 7.23509 2.06066 7.23509H4.70772C4.84813 7.23509 4.98279 7.17932 5.08207 7.08003C5.18135 6.98075 5.23713 6.84609 5.23713 6.70568C5.23713 6.56527 5.18135 6.43062 5.08207 6.33133C4.98279 6.23205 4.84813 6.17627 4.70772 6.17627ZM4.70772 8.82333H2.59007C2.44966 8.82333 2.31501 8.87911 2.21572 8.97839C2.11644 9.07767 2.06066 9.21233 2.06066 9.35274C2.06066 9.49315 2.11644 9.62781 2.21572 9.72709C2.31501 9.82638 2.44966 9.88215 2.59007 9.88215H4.70772C4.84813 9.88215 4.98279 9.82638 5.08207 9.72709C5.18135 9.62781 5.23713 9.49315 5.23713 9.35274C5.23713 9.21233 5.18135 9.07767 5.08207 8.97839C4.98279 8.87911 4.84813 8.82333 4.70772 8.82333Z" fill="currentColor"/>
</svg>
