<svg id="svg-dropdown" viewBox="0 0 9 9" fill="none" xmlns="http://www.w3.org/2000/svg">
<path d="M7.5 2.16669L1.5 2.16669C1.43925 2.16688 1.37971 2.18364 1.32778 2.21515C1.27584 2.24667 1.23349 2.29175 1.20527 2.34554C1.17705 2.39934 1.16404 2.45981 1.16763 2.52045C1.17123 2.5811 1.19129 2.63961 1.22567 2.68969L4.22567 7.02303C4.35 7.20269 4.64933 7.20269 4.774 7.02303L7.774 2.68969C7.80873 2.63971 7.82909 2.58117 7.83288 2.52043C7.83667 2.45969 7.82374 2.39907 7.7955 2.34516C7.76725 2.29125 7.72478 2.24611 7.67268 2.21464C7.62058 2.18318 7.56086 2.1666 7.5 2.16669Z" fill="currentColor"/>
</svg>
