<svg id="svg-dzen" viewBox="0 0 16 16" fill="none" xmlns="http://www.w3.org/2000/svg">
<path d="M12.7793 7.77827C12.7802 7.77827 12.7808 7.77827 12.7817 7.77827C12.8426 7.77827 12.9007 7.75273 12.9419 7.70798C12.9839 7.66258 13.0046 7.60167 12.9991 7.54012C12.78 5.1295 10.8714 3.22031 8.4606 3.0007C8.39947 2.9959 8.33792 3.01577 8.29251 3.0579C8.24711 3.09981 8.22178 3.15897 8.22244 3.22074C8.26042 6.42442 8.68304 7.73352 12.7793 7.77827ZM12.7793 8.22097C8.68304 8.26572 8.26064 9.57483 8.22266 12.7785C8.222 12.8403 8.24732 12.8994 8.29273 12.9414C8.33333 12.9787 8.38638 12.9994 8.44095 12.9994C8.4475 12.9994 8.45427 12.9992 8.46081 12.9985C10.8716 12.7789 12.7802 10.87 12.9991 8.45913C13.0046 8.39757 12.9841 8.33667 12.9419 8.29126C12.8998 8.24586 12.8411 8.22337 12.7793 8.22097ZM7.52477 3.00179C5.12158 3.22773 3.21915 5.13649 3.00108 7.54055C2.99562 7.60211 3.01614 7.66302 3.05827 7.70842C3.09953 7.75317 3.15781 7.77849 3.2185 7.77849C3.21937 7.77849 3.22024 7.77849 3.22112 7.77849C7.30386 7.73156 7.72538 6.42311 7.7638 3.22162C7.76446 3.15984 7.73892 3.10046 7.69351 3.05855C7.64767 3.01664 7.58633 2.99612 7.52477 3.00179ZM3.2209 8.22076C3.15301 8.21311 3.09975 8.24542 3.05805 8.29083C3.01614 8.33623 2.9954 8.39714 3.00086 8.4587C3.21893 10.8628 5.12158 12.7715 7.52477 12.9975C7.53154 12.9981 7.53852 12.9983 7.54529 12.9983C7.59986 12.9983 7.65269 12.9778 7.69329 12.9405C7.7387 12.8986 7.76424 12.8392 7.76358 12.7774C7.72517 9.57614 7.30386 8.26769 3.2209 8.22076Z" fill="currentColor"/>
</svg>
