<svg id="svg-eye-close" viewBox="0 0 16 16" fill="none" xmlns="http://www.w3.org/2000/svg">
<path fill-rule="evenodd" clip-rule="evenodd" d="M0.84017 4.44405C0.940433 4.3628 1.06839 4.32376 1.19693 4.33521C1.32547 4.34666 1.44451 4.40769 1.52884 4.50538C2.67084 5.84738 4.74284 7.52205 7.9975 7.52205C11.2515 7.52205 13.3242 5.84738 14.4662 4.50538C14.5505 4.40769 14.6695 4.34666 14.7981 4.33521C14.9266 4.32376 15.0546 4.3628 15.1548 4.44405C15.2039 4.4836 15.2446 4.5326 15.2745 4.58815C15.3043 4.64371 15.3227 4.70468 15.3285 4.76747C15.3344 4.83025 15.3275 4.89357 15.3085 4.95368C15.2894 5.01378 15.2585 5.06945 15.2175 5.11738C14.8655 5.53138 14.4288 5.97738 13.9028 6.40605C13.9308 6.43671 13.9555 6.47205 13.9755 6.51071L15.2788 9.06138C15.3075 9.11773 15.3246 9.17925 15.3291 9.24231C15.3335 9.30536 15.3254 9.36868 15.305 9.42852C15.2846 9.48836 15.2524 9.54351 15.2104 9.59072C15.1683 9.63793 15.1173 9.67624 15.0602 9.70338C14.9446 9.76016 14.8114 9.76957 14.689 9.72959C14.5666 9.68962 14.4646 9.60343 14.4048 9.48938L13.1215 6.97805C12.2224 7.5707 11.2244 7.99744 10.1748 8.23805L10.7582 11.0947C10.7703 11.1569 10.77 11.2208 10.7573 11.2828C10.7446 11.3449 10.7196 11.4038 10.684 11.4561C10.6483 11.5084 10.6027 11.5532 10.5496 11.5877C10.4965 11.6223 10.4371 11.6459 10.3748 11.6574C10.2488 11.6831 10.1178 11.6581 10.0101 11.5879C9.90239 11.5176 9.82673 11.4077 9.7995 11.282L9.2115 8.40605C8.82484 8.45271 8.4195 8.47805 7.9975 8.47805C7.5755 8.47805 7.17084 8.45271 6.7835 8.40605L6.1955 11.282C6.16828 11.4077 6.09261 11.5176 5.98492 11.5879C5.87722 11.6581 5.74616 11.6831 5.62017 11.6574C5.55789 11.6459 5.49849 11.6223 5.44542 11.5877C5.39236 11.5532 5.34667 11.5084 5.31102 11.4561C5.27536 11.4038 5.25045 11.3449 5.23772 11.2828C5.22498 11.2208 5.22468 11.1569 5.23684 11.0947L5.82084 8.23738C4.94115 8.03609 4.0968 7.70347 3.31617 7.25071L1.54417 9.56271C1.46498 9.66467 1.34916 9.73173 1.22132 9.74966C1.09347 9.76758 0.963678 9.73496 0.859503 9.65871C0.808301 9.62175 0.765049 9.57487 0.732316 9.52086C0.699583 9.46686 0.678038 9.40682 0.668959 9.34433C0.65988 9.28183 0.663452 9.21815 0.679465 9.15706C0.695477 9.09597 0.723602 9.03872 0.76217 8.98871L2.50084 6.72071C1.86536 6.25587 1.28692 5.71771 0.777503 5.11738C0.736534 5.06945 0.705599 5.01378 0.686531 4.95368C0.667463 4.89357 0.660648 4.83025 0.666492 4.76747C0.672335 4.70468 0.690717 4.64371 0.72055 4.58815C0.750382 4.5326 0.791059 4.4836 0.84017 4.44405Z" fill="currentColor"/>
</svg>
