<svg id="svg-eye-open" viewBox="0 0 16 16" fill="none" xmlns="http://www.w3.org/2000/svg">
<path d="M15.9551 7.83312C15.162 6.46223 14.0216 5.31241 12.6572 4.50807C11.2513 3.67928 9.64081 3.24121 7.99997 3.24121C6.35913 3.24121 4.74865 3.67928 3.34273 4.50807C1.97827 5.31244 0.83786 6.46223 0.044793 7.83312C0.01545 7.88386 0 7.94144 0 8.00005C0 8.05867 0.01545 8.11624 0.044793 8.16699C0.83786 9.53791 1.97827 10.6877 3.34273 11.492C4.74869 12.3209 6.35913 12.7589 7.99997 12.7589C9.64081 12.7589 11.2513 12.3209 12.6572 11.492C14.0216 10.6877 15.162 9.53791 15.9551 8.16699C15.9845 8.11624 15.9999 8.05867 15.9999 8.00005C15.9999 7.94144 15.9845 7.88386 15.9551 7.83312ZM12.3186 10.9177C11.0152 11.6861 9.52181 12.0922 7.99994 12.0922C6.47806 12.0922 4.98468 11.6861 3.68127 10.9177C2.47125 10.2044 1.45116 9.19828 0.720961 8.00002C1.45116 6.80178 2.47125 5.79564 3.68127 5.08233C4.98468 4.31398 6.47806 3.90783 7.99994 3.90783C9.52181 3.90783 11.0152 4.31398 12.3186 5.08233C13.5286 5.79564 14.5487 6.80175 15.2789 8.00002C14.5487 9.19828 13.5286 10.2044 12.3186 10.9177Z" fill="currentColor"/>
<path d="M8.00306 5.00476C6.35145 5.00476 5.00781 6.3484 5.00781 8C5.00781 9.65161 6.35145 10.9953 8.00306 10.9953C9.65466 10.9953 10.9983 9.65161 10.9983 8C10.9983 6.34843 9.65463 5.00476 8.00306 5.00476ZM8.00306 10.3286C6.71907 10.3286 5.67447 9.28402 5.67447 8C5.67447 6.71602 6.71907 5.67142 8.00306 5.67142C9.28708 5.67142 10.3317 6.71602 10.3317 8C10.3317 9.28402 9.28708 10.3286 8.00306 10.3286Z" fill="currentColor"/>
<circle cx="8" cy="8" r="3" fill="currentColor"/>
</svg>
