<svg id="svg-location" viewBox="0 0 20 20" fill="none" xmlns="http://www.w3.org/2000/svg">
<path d="M10 1.60712C11.847 1.60712 13.6184 2.34085 14.9245 3.64691C16.2305 4.95297 16.9643 6.72436 16.9643 8.5714C16.9643 11.5143 14.8964 14.7214 10.8143 18.2271C10.5873 18.4221 10.2979 18.5292 9.99866 18.5289C9.69943 18.5287 9.41021 18.4211 9.18357 18.2257L8.91357 17.9914C5.01214 14.5771 3.03571 11.4485 3.03571 8.5714C3.03571 6.72436 3.76945 4.95297 5.07551 3.64691C6.38156 2.34085 8.15296 1.60712 10 1.60712ZM10 5.89283C9.2896 5.89283 8.60829 6.17504 8.10596 6.67737C7.60363 7.1797 7.32143 7.861 7.32143 8.5714C7.32143 9.2818 7.60363 9.96311 8.10596 10.4654C8.60829 10.9678 9.2896 11.25 10 11.25C10.7104 11.25 11.3917 10.9678 11.894 10.4654C12.3964 9.96311 12.6786 9.2818 12.6786 8.5714C12.6786 7.861 12.3964 7.1797 11.894 6.67737C11.3917 6.17504 10.7104 5.89283 10 5.89283Z" fill="currentColor"/>
</svg>
