<svg id="svg-telegram-color" viewBox="0 0 21 21" fill="none" xmlns="http://www.w3.org/2000/svg">
<path d="M10.4996 19.6271C15.5422 19.6271 19.63 15.5392 19.63 10.4966C19.63 5.45405 15.5422 1.36621 10.4996 1.36621C5.45698 1.36621 1.36914 5.45405 1.36914 10.4966C1.36914 15.5392 5.45698 19.6271 10.4996 19.6271Z" fill="#229ED9"/>
<path fill-rule="evenodd" clip-rule="evenodd" d="M5.50391 10.3998C8.16562 9.24017 9.94051 8.47565 10.8286 8.10627C13.3642 7.05162 13.8911 6.86842 14.2345 6.86237C14.31 6.86104 14.4789 6.87976 14.5883 6.96852C14.6807 7.04347 14.7061 7.14472 14.7182 7.21579C14.7304 7.28685 14.7455 7.44873 14.7335 7.57522C14.5961 9.01896 14.0015 12.5225 13.6991 14.1395C13.5711 14.8238 13.3191 15.0532 13.0751 15.0756C12.5449 15.1244 12.1422 14.7252 11.6287 14.3886C10.8251 13.8618 10.3711 13.5339 9.59109 13.0199C8.68963 12.4258 9.27401 12.0993 9.78775 11.5657C9.9222 11.4261 12.2584 9.30116 12.3036 9.1084C12.3092 9.08429 12.3145 8.99443 12.2611 8.94697C12.2077 8.89952 12.1289 8.91575 12.0721 8.92865C11.9915 8.94695 10.7077 9.79546 8.22079 11.4742C7.8564 11.7244 7.52634 11.8463 7.23063 11.8399C6.90462 11.8329 6.27752 11.6556 5.81134 11.5041C5.23955 11.3182 4.7851 11.2199 4.82467 10.9043C4.84528 10.7399 5.0717 10.5717 5.50391 10.3998Z" fill="white"/>
</svg>
