<svg id="svg-tooltip" viewBox="0 0 18 18" fill="none" xmlns="http://www.w3.org/2000/svg">
<path d="M6.46354 6.39877C6.61536 5.93095 6.89347 5.51463 7.26736 5.1951C7.64125 4.87556 8.09671 4.66558 8.58247 4.58851C9.06822 4.51144 9.56553 4.57013 10.02 4.75825C10.4744 4.94636 10.868 5.25666 11.1571 5.65451C11.4463 6.05236 11.6195 6.52227 11.6581 7.01259C11.6968 7.5029 11.599 7.99448 11.3757 8.43273C11.1525 8.87097 10.8128 9.23866 10.3934 9.49566C9.97408 9.75266 9.49183 9.88868 9 9.88868V10.778M9 17C4.58172 17 1 13.4183 1 9C1 4.58172 4.58172 1 9 1C13.4183 1 17 4.58172 17 9C17 13.4183 13.4183 17 9 17ZM9.04427 13.4444V13.5333L8.95573 13.5335V13.4444H9.04427Z" stroke="currentColor" stroke-width="0.888889" stroke-linecap="round" stroke-linejoin="round"/>
</svg>
