<svg id="svg-calendar-time" viewBox="0 0 16 16" fill="none" xmlns="http://www.w3.org/2000/svg">
<path d="M11 9C11 8.72386 10.7761 8.5 10.5 8.5C10.2239 8.5 10 8.72386 10 9V10.6063C10 10.8383 10.0806 11.063 10.2281 11.242L11.114 12.3179C11.2896 12.531 11.6047 12.5615 11.8179 12.386C12.031 12.2104 12.0615 11.8953 11.886 11.6821L11 10.6063V9Z" fill="currentColor"/>
<path fill-rule="evenodd" clip-rule="evenodd" d="M5 1.5C5.27614 1.5 5.5 1.72386 5.5 2V2.5H10.5V2C10.5 1.72386 10.7239 1.5 11 1.5C11.2761 1.5 11.5 1.72386 11.5 2V2.5C11.5 2.51387 11.4994 2.52761 11.4983 2.5412C12.918 2.77855 14 4.01292 14 5.5V7.26389C14.6137 7.81321 15 8.6115 15 9.5V11.5C15 13.1569 13.6569 14.5 12 14.5H5C3.34315 14.5 2 13.1569 2 11.5V5.5C2 4.01292 3.08199 2.77855 4.50167 2.5412C4.50056 2.52761 4.5 2.51387 4.5 2.5V2C4.5 1.72386 4.72386 1.5 5 1.5ZM13 5.5V6.67071C12.6872 6.56015 12.3506 6.5 12 6.5H10C8.34315 6.5 7 7.84315 7 9.5V11.5C7 12.2684 7.28885 12.9692 7.76389 13.5H5C3.89543 13.5 3 12.6046 3 11.5V5.5C3 4.39543 3.89543 3.5 5 3.5H11C12.1046 3.5 13 4.39543 13 5.5ZM10 7.5C8.89543 7.5 8 8.39543 8 9.5V11.5C8 12.6046 8.89543 13.5 10 13.5H12C13.1046 13.5 14 12.6046 14 11.5V9.5C14 8.39543 13.1046 7.5 12 7.5H10Z" fill="currentColor"/>
</svg>
