<svg id="svg-check" viewBox="0 0 20 20" fill="none" xmlns="http://www.w3.org/2000/svg">
<path fill-rule="evenodd" clip-rule="evenodd" d="M14.3066 6.82432C14.3565 6.86798 14.3972 6.92111 14.4263 6.98063C14.4555 7.04016 14.4725 7.10488 14.4764 7.17104C14.4803 7.23719 14.471 7.30347 14.4491 7.36601C14.4272 7.42855 14.393 7.4861 14.3486 7.53532L9.09164 13.3698C9.04705 13.4192 8.99304 13.4592 8.93278 13.4875C8.87253 13.5158 8.80723 13.5317 8.74073 13.5344C8.67423 13.5371 8.60786 13.5265 8.54551 13.5032C8.48316 13.48 8.42609 13.4445 8.37764 13.3988L5.33564 10.5353C5.24438 10.4482 5.18912 10.33 5.18079 10.2041C5.17246 10.0782 5.21165 9.95373 5.29064 9.85532C5.33327 9.80198 5.3863 9.75785 5.44651 9.72562C5.50671 9.69339 5.57284 9.67373 5.64088 9.66784C5.70891 9.66195 5.77744 9.66995 5.84229 9.69134C5.90714 9.71274 5.96697 9.7471 6.01814 9.79232L8.37814 11.9153C8.47668 12.004 8.6064 12.0499 8.7388 12.043C8.87119 12.0361 8.99541 11.9768 9.08414 11.8783L13.6056 6.86482C13.6937 6.76724 13.8165 6.70823 13.9477 6.70056C14.0789 6.69289 14.2078 6.73717 14.3066 6.82382V6.82432Z" fill="currentColor"/>
</svg>
