<svg id="svg-filter" viewBox="0 0 16 17" fill="none" xmlns="http://www.w3.org/2000/svg">
<path d="M14.667 4.53735H10.667" stroke="currentColor" stroke-miterlimit="10" stroke-linecap="round" stroke-linejoin="round"/>
<path d="M3.99967 4.53735H1.33301" stroke="currentColor" stroke-miterlimit="10" stroke-linecap="round" stroke-linejoin="round"/>
<path d="M6.66634 6.87077C7.95501 6.87077 8.99967 5.8261 8.99967 4.53744C8.99967 3.24877 7.95501 2.2041 6.66634 2.2041C5.37768 2.2041 4.33301 3.24877 4.33301 4.53744C4.33301 5.8261 5.37768 6.87077 6.66634 6.87077Z" stroke="currentColor" stroke-miterlimit="10" stroke-linecap="round" stroke-linejoin="round"/>
<path d="M14.6667 11.8708H12" stroke="currentColor" stroke-miterlimit="10" stroke-linecap="round" stroke-linejoin="round"/>
<path d="M5.33301 11.8708H1.33301" stroke="currentColor" stroke-miterlimit="10" stroke-linecap="round" stroke-linejoin="round"/>
<path d="M9.33333 14.204C10.622 14.204 11.6667 13.1594 11.6667 11.8707C11.6667 10.582 10.622 9.53735 9.33333 9.53735C8.04467 9.53735 7 10.582 7 11.8707C7 13.1594 8.04467 14.204 9.33333 14.204Z" stroke="currentColor" stroke-miterlimit="10" stroke-linecap="round" stroke-linejoin="round"/>
</svg>
