<svg id="svg-google" viewBox="0 0 25 24" fill="none" xmlns="http://www.w3.org/2000/svg">
<path d="M23.5955 9.91355L13.8061 9.91309C13.3738 9.91309 13.0234 10.2634 13.0234 10.6957V13.823C13.0234 14.2552 13.3738 14.6056 13.8061 14.6056H19.3188C18.7152 16.1722 17.5885 17.4842 16.151 18.3178L18.5017 22.387C22.2724 20.2062 24.5017 16.3799 24.5017 12.0965C24.5017 11.4866 24.4567 11.0506 24.3668 10.5597C24.2985 10.1867 23.9747 9.91355 23.5955 9.91355Z" fill="#167EE6"/>
<path d="M12.4964 19.3043C9.79852 19.3043 7.44333 17.8303 6.17841 15.649L2.10938 17.9944C4.18008 21.5832 8.05917 24 12.4964 24C14.6731 24 16.727 23.4139 18.4964 22.3925V22.387L16.1457 18.3177C15.0705 18.9414 13.8263 19.3043 12.4964 19.3043Z" fill="#12B347"/>
<path d="M18.5 22.3925V22.387L16.1494 18.3177C15.0741 18.9413 13.83 19.3043 12.5 19.3043V24C14.6767 24 16.7308 23.4139 18.5 22.3925Z" fill="#0F993E"/>
<path d="M5.19566 12C5.19566 10.6702 5.55856 9.42613 6.18205 8.35096L2.11302 6.00562C1.08603 7.76938 0.5 9.81772 0.5 12C0.5 14.1824 1.08603 16.2307 2.11302 17.9945L6.18205 15.6491C5.55856 14.5739 5.19566 13.3298 5.19566 12Z" fill="#FFD500"/>
<path d="M12.4964 4.69566C14.2556 4.69566 15.8716 5.32078 17.1338 6.36061C17.4452 6.61711 17.8978 6.59859 18.183 6.31336L20.3988 4.09758C20.7224 3.77395 20.6993 3.24422 20.3536 2.94431C18.2389 1.10967 15.4873 0 12.4964 0C8.05917 0 4.18008 2.41673 2.10938 6.00558L6.17841 8.35092C7.44333 6.16969 9.79852 4.69566 12.4964 4.69566Z" fill="#FF4B26"/>
<path d="M17.1374 6.36061C17.4488 6.61711 17.9015 6.59859 18.1866 6.31336L20.4024 4.09758C20.726 3.77395 20.7029 3.24422 20.3573 2.94431C18.2425 1.10963 15.491 0 12.5 0V4.69566C14.2592 4.69566 15.8752 5.32078 17.1374 6.36061Z" fill="#D93F21"/>
</svg>
