<svg id="svg-ozon" viewBox="0 0 201 201" fill="none" xmlns="http://www.w3.org/2000/svg">
<mask id="mask0_2084_14704" style="mask-type:luminance" maskUnits="userSpaceOnUse" x="0" y="0" width="201" height="201">
<path d="M160.551 0.390137H40.5508C18.4594 0.390137 0.550781 18.2987 0.550781 40.3901V160.39C0.550781 182.482 18.4594 200.39 40.5508 200.39H160.551C182.642 200.39 200.551 182.482 200.551 160.39V40.3901C200.551 18.2987 182.642 0.390137 160.551 0.390137Z" fill="white"/>
</mask>
<g mask="url(#mask0_2084_14704)">
<path d="M160.551 0.390137H40.5508C18.4594 0.390137 0.550781 18.2987 0.550781 40.3901V160.39C0.550781 182.482 18.4594 200.39 40.5508 200.39H160.551C182.642 200.39 200.551 182.482 200.551 160.39V40.3901C200.551 18.2987 182.642 0.390137 160.551 0.390137Z" fill="#005BFF"/>
<path d="M757.172 -209.78C756.612 -209.87 753.922 -209.22 752.152 -208.02C736.262 -197.34 715.182 -172.72 686.662 -144.39C670.312 -128.13 651.542 -110.58 630.182 -93.7598C617.752 -84.0298 604.442 -75.5498 590.332 -68.4898C497.422 -21.7598 453.202 -4.01983 413.632 28.1302C411.272 30.0502 408.602 31.4402 405.922 32.8702C373.222 48.0102 336.522 82.2002 310.422 110.16C295.832 125.86 284.592 139.51 279.212 146.94C263.882 168.3 234.992 223.11 191.512 272.72C160.682 307.96 128.052 334 89.8418 356.49H155.062C176.872 344.5 197.082 332.35 210.372 321.59C213.812 318.8 216.782 316.02 219.292 313.42C226.912 305.34 236.292 290.76 245.392 272.73C263.512 236.97 284.412 188.1 310.422 152.9C323.332 135.34 337.452 121.22 352.972 113.98C354.832 113.51 356.502 114.81 356.502 116.67C350.552 143.05 327.332 164.7 310.422 182.63C297.792 196.01 288.122 207.71 292.312 214.21C296.522 220.52 306.812 210.39 310.422 206.78C335.312 185.32 376.752 127.54 405.642 102.64C410.042 98.8702 416.422 91.9502 420.502 87.8702C437.682 68.1802 448.832 51.1802 470.852 31.5802C534.202 -24.8998 568.952 -24.3398 638.162 -78.5898C667.332 -101.44 692.882 -124.39 713.132 -144.36C742.672 -173.62 760.512 -196.85 760.322 -205.86C760.322 -208 759.302 -209.3 757.162 -209.76L757.172 -209.78Z" fill="#F1117E"/>
<path d="M46.9514 -2.35016C65.0714 -17.0202 169.861 -62.7201 210.361 -95.5201C213.801 -98.3101 216.771 -101.09 219.281 -103.69C226.901 -111.77 236.281 -126.35 245.381 -144.38C263.491 -180.14 284.401 -229.01 310.411 -264.21C323.321 -281.77 337.441 -295.89 352.961 -303.13C354.821 -303.6 356.491 -302.3 356.491 -300.44C350.541 -274.06 327.321 -252.41 310.411 -234.48C297.781 -221.1 288.111 -209.4 292.301 -202.9C296.511 -196.59 306.801 -206.72 310.411 -210.33C335.301 -231.79 376.741 -289.57 405.631 -314.47C410.031 -318.24 416.411 -325.16 420.491 -329.24C437.671 -348.93 448.821 -365.93 470.841 -385.53C534.191 -442.01 568.941 -441.45 638.151 -495.7C667.321 -518.55 692.871 -541.5 713.121 -561.47C742.661 -590.73 760.501 -613.96 760.311 -622.97C760.311 -625.11 759.291 -626.41 757.151 -626.87C756.591 -626.96 753.901 -626.31 752.131 -625.11C736.241 -614.43 715.161 -589.81 686.641 -561.48C670.291 -545.22 651.521 -527.67 630.161 -510.85C617.731 -501.12 604.421 -492.64 590.311 -485.58C497.411 -438.86 453.191 -421.11 413.621 -388.97C411.261 -387.05 408.591 -385.66 405.911 -384.23C373.211 -369.09 336.511 -334.9 310.411 -306.94C295.821 -291.24 284.581 -277.59 279.201 -270.16C263.871 -248.8 234.981 -193.99 191.501 -144.38C151.691 -98.8802 108.901 -68.7102 54.9414 -41.7302C13.5114 -23.7102 -2.9286 -3.93015 -46.4086 31.4698C-53.3086 37.0498 -59.3186 42.3398 -66.9386 49.0298C-66.9386 49.0298 -67.0286 49.0298 -67.0286 49.1198C-79.6586 60.2298 -91.8786 71.7798 -104.059 83.3698V107.44C-52.9186 71.2198 -11.8086 54.1798 11.9214 34.8998C24.9314 24.0598 33.6014 8.45984 46.9414 -2.35016H46.9514Z" fill="#F1117E"/>
<path d="M59.4214 211.54C64.5314 209.09 69.1314 205.72 73.0214 201.6C83.8314 190.15 101.061 175.18 114.901 166.54C132.951 155.26 151.801 133.65 170.741 115.69C200.371 91.73 228.431 64.37 249.751 32.67C257.171 22.27 266.821 13.58 276.691 5.54999C287.861 -3.62001 299.501 -12.28 310.411 -21.76C323.971 -33.28 328.561 -28.42 409.631 -111.87C419.101 -121.62 426.071 -128.58 435.261 -135.37C439.911 -138.53 444.831 -141.87 449.751 -144.38C491.181 -165.93 539.831 -170.13 582.691 -188.5C611.011 -201.54 632.371 -225.56 654.501 -246.75C676.111 -267.4 702.321 -282.56 727.061 -299.05C757.771 -323.57 786.981 -351.68 809.001 -384.42C816.421 -394.82 826.071 -403.52 835.941 -411.54C847.111 -420.71 858.751 -429.37 869.661 -438.85C883.221 -450.37 887.811 -445.51 968.881 -528.96C978.351 -538.71 985.321 -545.68 994.511 -552.46C999.161 -555.62 1004.08 -558.96 1009 -561.47C1050.43 -583.02 1099.08 -587.22 1141.94 -605.6C1170.26 -618.63 1191.62 -642.65 1213.75 -663.84C1235.36 -684.49 1261.57 -699.65 1286.31 -716.14C1317.02 -740.66 1346.23 -768.77 1368.24 -801.51C1375.67 -811.91 1385.32 -820.61 1395.19 -828.63C1398.01 -830.95 1400.86 -833.23 1403.72 -835.5H1360.1C1353.11 -827.74 1345.97 -819.27 1338.7 -809.78C1311.27 -775.81 1277.89 -742.65 1242.37 -717.25C1178.83 -672.94 1125.6 -630.3 1111.2 -629.75C1109.34 -629.75 1107.97 -631.22 1107.48 -633C1105.06 -641.73 1116.97 -652.89 1124.85 -660.77C1158.48 -693.84 1260.11 -744.01 1296.06 -794.63C1305.36 -807.92 1315.98 -821.58 1325.57 -835.5H1288.58C1282.55 -831.47 1276.47 -827.21 1270.98 -822.78C1262.9 -816.26 1257.84 -808.69 1252.12 -800.12C1232.15 -770.85 1187.74 -768.25 1123.09 -688.74C1105.85 -667.7 1083.85 -651.68 1060.94 -637.37C1033.63 -620.46 1011.33 -611.45 988.851 -592.77C982.711 -587.66 969.341 -573.64 968.781 -572.99C964.051 -568.26 950.341 -565.08 951.871 -575.77C953.271 -583.2 966.181 -597.23 972.681 -609.4C989.221 -637.59 1008.9 -668.66 1039.2 -683.72C1055.08 -691.62 1071.15 -694.68 1092.06 -705.18C1128.34 -723.32 1156.21 -750.37 1183.28 -780.24C1190.16 -787.12 1196.35 -794.83 1202.61 -802.26C1217.94 -817.59 1239.51 -826.52 1260.06 -835.5H1201.58C1198.13 -833.64 1194.67 -831.7 1191.18 -829.66C1189.97 -828.92 1172.6 -817.68 1166.19 -812.66C1153.53 -802.89 1143.88 -789.95 1132.19 -779.12C1099.4 -746.33 1042.73 -732.4 1009 -699.42C966.741 -657.16 942.991 -614.24 915.181 -561.48C901.421 -536.27 887.391 -513.53 869.651 -490.87C843.921 -458.36 812.991 -436.53 779.451 -392.68C752.011 -358.71 718.631 -325.56 683.121 -300.16C619.571 -255.85 566.341 -213.21 551.941 -212.65C550.091 -212.65 548.721 -214.13 548.231 -215.91C545.811 -224.64 557.711 -235.8 565.601 -243.68C599.231 -276.75 700.861 -326.92 736.811 -377.54C750.401 -396.95 766.811 -417.18 778.711 -437.83C802.401 -478.33 816.241 -495.7 843.091 -517.63C852.561 -525.52 861.191 -533.86 869.651 -542.9C876.251 -549.95 882.661 -555.16 888.241 -561.48C968.131 -652.7 950.391 -674.72 970.541 -692.46C1041.89 -753.86 1100.23 -774.76 1130.42 -799.29C1143.03 -809.79 1151.56 -824.75 1164.2 -835.5H1110.93C1099.87 -826.16 1087.73 -815.45 1072.08 -802.72C1065.19 -797.14 1059.17 -791.85 1051.55 -785.17C1051.55 -785.17 1051.46 -785.17 1051.46 -785.07C1023.68 -760.63 997.891 -734.07 970.081 -709.64C961.911 -702.68 945.281 -684.75 931.901 -648.8C919.641 -624.74 899.111 -610.81 869.661 -583.78C866.971 -581.36 864.271 -578.29 861.391 -575.6C856.561 -571.05 851.541 -566.31 847.361 -561.48C822.091 -532.87 806.021 -501.56 782.431 -480.47C776.761 -474.62 769.311 -471.25 762.641 -467.84C731.611 -452.7 683.211 -442.57 631.931 -412.57C630.721 -411.82 613.351 -400.59 606.941 -395.57C594.281 -385.79 584.631 -372.85 572.941 -362.03C540.151 -329.24 483.481 -315.31 449.751 -282.33C407.491 -240.07 383.741 -197.14 355.931 -144.38C342.171 -119.18 328.141 -96.44 310.411 -73.78C284.671 -41.27 253.741 -19.44 220.201 24.41C216.021 29.58 208.161 35.55 204.991 37.86C204.321 38.35 203.681 38.89 203.051 39.43C201.611 40.65 198.101 42.81 191.831 50.13C184.451 58.75 162.071 86.06 160.071 87.84C148.371 98.29 136.251 108.08 123.881 116.93C60.3314 161.24 7.1014 203.88 -7.2986 204.44C-9.1586 204.44 -10.5186 202.96 -11.0086 201.19C-13.4286 192.46 -1.5186 181.29 6.3614 173.41C16.9014 163.05 34.1014 151.02 53.8814 137.81C55.5614 136.69 58.7914 134.11 62.1214 131.6C63.8814 130.27 65.7414 129.07 67.6514 127.97C74.9414 123.77 85.4214 115.25 91.2514 110.43C93.4314 108.63 97.7314 103.1 99.1114 101.4C105.391 93.63 114.271 89.28 119.691 87.2C124.141 85.49 128.331 83.21 132.211 80.46C149.481 68.23 173.811 46.65 193.371 17.33L192.861 18.5C202.301 5.67 211.821 -7.43997 219.471 -20.72C243.161 -61.22 257.001 -78.59 283.851 -100.52C293.321 -108.41 301.951 -116.75 310.421 -125.78C317.011 -132.84 323.421 -138.04 329.001 -144.36C408.891 -235.59 391.151 -257.6 411.301 -275.34C482.651 -336.75 540.991 -357.65 571.181 -382.17C584.201 -393.01 592.861 -408.61 606.211 -419.42C624.321 -434.1 729.111 -479.8 769.621 -512.6C773.051 -515.38 776.031 -518.17 778.531 -520.77C786.151 -528.86 795.541 -543.44 804.641 -561.46C822.751 -597.22 843.651 -646.09 869.661 -681.29C882.581 -698.85 896.701 -712.97 912.211 -720.22C914.081 -720.68 915.741 -719.38 915.741 -717.52C909.801 -691.14 886.571 -669.49 869.661 -651.57C857.031 -638.19 847.371 -626.49 851.551 -619.98C855.761 -613.67 866.051 -623.81 869.661 -627.42C894.561 -648.88 935.991 -706.66 964.891 -731.55C969.281 -735.32 975.671 -742.24 979.751 -746.32C996.941 -766.01 1008.08 -783.02 1030.1 -802.62C1045.62 -816.45 1059.42 -826.86 1072.44 -835.49H1016.49C1000.27 -826.21 986.311 -816.96 972.881 -806.05C970.521 -804.13 967.841 -802.74 965.171 -801.32C932.471 -786.18 895.771 -751.99 869.671 -724.03C855.081 -708.33 843.841 -694.67 838.461 -687.24C823.131 -665.88 794.241 -611.07 750.761 -561.46C710.951 -515.97 668.161 -485.8 614.191 -458.82C572.761 -440.79 556.321 -421.01 512.841 -385.62C505.951 -380.04 499.931 -374.75 492.311 -368.06C492.311 -368.06 492.221 -368.06 492.221 -367.97C464.441 -343.52 438.641 -316.96 410.841 -292.54C402.661 -285.57 386.041 -267.64 372.661 -231.69C360.401 -207.63 339.871 -193.7 310.421 -166.67C307.721 -164.25 305.031 -161.19 302.151 -158.49C297.321 -153.94 292.301 -149.21 288.121 -144.37C262.851 -115.76 246.781 -84.45 223.181 -63.37C217.511 -57.51 210.071 -54.15 203.391 -50.73C175.961 -37.34 97.4814 -2.29999 96.0014 -1.60999C61.8814 14.25 47.7714 26 36.9614 36.81C25.6814 48.1 5.16141 74.25 -6.62859 79.89C-11.5286 82.23 -78.4586 107.67 -104.059 129.8V168C-97.1586 161.53 -86.6586 134.47 -26.5686 108.29C-19.7486 105.32 -12.6586 103.02 -5.47859 101.07C11.3214 96.52 34.0014 83.2 46.1414 73.78C52.4614 67.36 58.6514 60.73 64.7914 53.95C71.6714 47.07 77.8514 39.37 84.1114 31.94C104.831 11.2 136.951 2.16997 162.521 -11.09C179.891 -23.17 202.791 -39.64 204.881 -29.39C204.881 -26.98 202.461 -24.1 198.571 -20.75C188.351 -12.3 168.001 -1.14999 152.491 11.39C144.411 17.91 139.351 25.48 133.631 34.05C126.571 44.38 116.471 51.39 103.501 59.65L98.5014 61.92H95.5014C94.7914 61.92 94.0914 62.15 93.5214 62.58L92.3514 63.46L91.8714 64.26C91.1914 65.39 90.2314 66.33 89.0914 66.99C86.5414 68.45 82.8314 70.75 80.5614 72.69C78.4114 74.53 74.9914 77.63 72.4714 79.93C71.8214 80.52 71.1514 81.07 70.4414 81.59C64.1114 86.23 57.4114 91.5 50.3314 97.65C46.5314 100.95 42.3314 103.78 37.8514 106.06C33.0314 108.51 27.3114 111.05 21.5814 112.68C20.1314 113.09 16.3214 113.34 14.6314 113.49C10.8214 113.82 7.30141 115.62 4.69141 118.41C-0.498594 123.96 -3.44859 129.96 -10.9186 136.65C-20.5486 145.28 -41.4986 167.29 -53.8186 179.22C-66.1386 191.14 -89.6686 214.81 -104.059 223.47V270C-63.8586 250.76 -17.5586 246.14 23.4514 228.57C31.8314 224.71 49.1014 216.47 59.4214 211.53V211.54ZM392.631 -158.7C394.041 -166.13 406.941 -180.16 413.441 -192.32C429.981 -220.51 449.661 -251.57 479.961 -266.64C495.841 -274.53 511.911 -277.6 532.821 -288.1C569.101 -306.24 596.971 -333.28 624.041 -363.16C630.921 -370.04 637.111 -377.74 643.371 -385.18C664.081 -405.89 696.201 -414.93 721.771 -428.18C739.141 -440.26 762.051 -456.73 764.131 -446.49C764.131 -444.07 761.721 -441.19 757.821 -437.85C747.601 -429.39 727.261 -418.24 711.741 -405.7C703.661 -399.19 698.601 -391.61 692.881 -383.04C672.911 -353.78 628.501 -351.18 563.851 -271.66C546.611 -250.62 524.611 -234.6 501.701 -220.29C474.391 -203.38 452.091 -194.37 429.611 -175.7C423.471 -170.59 410.101 -156.56 409.541 -155.91C404.811 -151.18 391.101 -148 392.631 -158.7Z" fill="#F1117E"/>
<path d="M-88.3886 31.5702C-25.0386 -24.9198 9.7114 -24.3598 78.9214 -78.6098C108.091 -101.46 133.641 -124.41 153.891 -144.38C183.431 -173.64 201.271 -196.87 201.081 -205.88C201.081 -208.02 200.061 -209.32 197.921 -209.78C197.361 -209.87 194.671 -209.22 192.901 -208.02C177.011 -197.34 155.931 -172.72 127.411 -144.39C111.061 -128.13 92.2914 -110.58 70.9314 -93.7598C58.5014 -84.0298 45.1914 -75.5498 31.0814 -68.4898C-31.6386 -36.9398 -72.1686 -18.5998 -104.059 -0.129837V46.8502C-99.3986 41.8702 -94.2886 36.8102 -88.3986 31.5702H-88.3886Z" fill="#F1117E"/>
<path d="M1458.57 -835.51C1445.95 -826.21 1434.95 -817.26 1428.9 -810.44C1426.82 -808.19 1425.46 -805.79 1423.33 -802.45C1400.38 -766.5 1368.05 -769.01 1305.26 -689.12C1295.79 -677.14 1284.64 -666.73 1271.91 -658.37C1233.26 -632.82 1219.05 -637.75 1146.13 -568.82C1143.53 -566.4 1140.84 -563.8 1138.14 -561.48C1136.1 -559.72 1134.05 -557.86 1131.92 -556.19C1095.41 -527.86 1009.01 -467.75 995.181 -472.03C994.441 -472.31 993.971 -473.05 994.251 -473.89C1004 -508.63 1083.71 -539.19 1092.63 -552.2C1093.28 -553.13 1093.56 -555.92 1089.84 -555.92C1004.28 -557.59 996.941 -489.69 972.041 -466.84C971.481 -466.47 890.661 -417.05 869.661 -393.36C867.581 -391.11 866.221 -388.71 864.091 -385.37C841.141 -349.42 808.811 -351.93 746.021 -272.04C736.551 -260.06 725.401 -249.65 712.671 -241.29C674.021 -215.74 659.811 -220.67 586.891 -151.74C584.291 -149.32 581.601 -146.72 578.901 -144.4C576.861 -142.64 574.811 -140.78 572.681 -139.11C536.171 -110.78 449.771 -50.6701 435.941 -54.9501C435.201 -55.2301 434.731 -55.9701 435.011 -56.8101C444.761 -91.5501 524.471 -122.11 533.391 -135.12C534.041 -136.05 534.321 -138.84 530.601 -138.84C445.041 -140.51 437.701 -72.6101 412.801 -49.7601C412.241 -49.3901 331.421 0.0299702 310.421 23.72C308.341 25.97 306.981 28.37 304.851 31.71C281.901 67.66 249.571 65.1499 186.781 145.04C177.311 157.02 166.161 167.43 153.431 175.79C114.781 201.34 100.571 196.41 27.6509 265.34C25.0509 267.76 22.3609 270.36 19.6609 272.68C17.6209 274.44 15.5709 276.3 13.4409 277.97C-14.7691 299.86 -72.7391 340.7 -104.039 356.19V356.45H-51.2091C-39.4091 350.69 -26.5191 343.79 -12.3891 335.2C0.710939 327.3 13.0709 318.2 24.5809 308.17C40.5609 294.24 54.9609 282.44 67.0309 272.68H67.0209C128.141 223.27 147.011 218.9 193.181 188.06C206.741 178.95 219.191 167.72 229.971 154.9C255.961 123.72 282.071 99.4599 310.421 71.1099C342.331 39.2099 379.911 13.3999 413.821 -16.4901C441.411 -38.3201 480.331 -41.4801 546.851 -81.8901C559.951 -89.7901 572.311 -98.89 583.821 -108.92C599.801 -122.85 614.201 -134.65 626.271 -144.41C687.391 -193.83 706.261 -198.2 752.431 -229.04C765.991 -238.15 778.441 -249.38 789.221 -262.2C815.211 -293.38 841.321 -317.64 869.671 -345.99C901.581 -377.89 939.161 -403.7 973.071 -433.59C1000.66 -455.42 1039.58 -458.58 1106.1 -498.99C1119.2 -506.89 1131.56 -515.99 1143.07 -526.02C1159.05 -539.95 1173.45 -551.75 1185.52 -561.51C1246.65 -610.93 1265.51 -615.3 1311.68 -646.14C1325.24 -655.25 1337.69 -666.48 1348.47 -679.3C1374.46 -710.48 1400.57 -734.74 1428.92 -763.09C1455.33 -789.49 1485.61 -811.72 1514.49 -835.54H1458.58L1458.57 -835.51Z" fill="#F1117E"/>
<path d="M29.3423 127.52C30.0823 132.98 26.9523 138.4 21.8223 140.49C14.3123 143.56 5.98233 138.77 4.89233 130.75C4.15233 125.29 7.28233 119.87 12.4123 117.78C19.9323 114.72 28.2523 119.5 29.3423 127.52ZM13.4623 106.39C-1.02767 108.78 -9.64767 123.66 -4.47767 137.36C-0.657669 147.49 10.0523 153.65 20.7823 151.89C35.2723 149.5 43.8923 134.62 38.7223 120.92C34.8923 110.79 24.1923 104.63 13.4623 106.39Z" fill="white"/>
<path d="M84.2332 122.81L66.3132 127.61L81.2332 91.75C81.7232 90.56 80.6332 89.34 79.3832 89.67L46.3132 98.53C43.0532 99.4 41.2632 103.02 42.8232 106.18C43.9732 108.49 46.7532 109.54 49.2932 108.86L64.0032 104.92L49.0832 140.81C48.5932 141.99 49.6832 143.2 50.9232 142.87L86.8432 133.24C89.3732 132.56 91.2632 130.27 91.1032 127.68C90.8832 124.16 87.5232 121.92 84.2432 122.8L84.2332 122.81Z" fill="white"/>
<path d="M197.632 63.5502C196.762 60.3102 193.082 58.5802 189.852 60.1902C187.542 61.3502 186.462 64.0402 187.122 66.5002L191.752 83.7902L157.242 69.1502C156.042 68.6402 154.762 69.7302 155.092 70.9802L164.652 106.67C165.312 109.13 167.592 110.92 170.172 110.77C173.772 110.56 176.092 107.21 175.232 103.97L170.562 86.5302L205.072 101.18C206.272 101.69 207.552 100.6 207.222 99.3502L197.622 63.5302L197.632 63.5502Z" fill="white"/>
<path d="M124.422 113.1C112.352 116.33 101.652 112.48 100.152 106.89C98.6518 101.29 105.992 92.6098 118.062 89.3798C130.132 86.1498 140.832 89.9998 142.332 95.5898C143.832 101.18 136.492 109.87 124.422 113.1ZM115.282 78.9998C97.8118 83.6798 86.3218 97.4298 89.6218 109.72C92.9118 122.01 109.742 128.17 127.202 123.49C144.672 118.81 156.162 105.06 152.862 92.7698C149.572 80.4898 132.742 74.3198 115.282 78.9998Z" fill="white"/>
<path d="M165.461 50.9601C167.181 50.5001 168.031 48.9801 167.551 47.1701C167.071 45.3601 165.561 44.4701 163.841 44.9301C162.121 45.3901 161.271 46.9101 161.751 48.7201C162.231 50.5301 163.741 51.4201 165.461 50.9601ZM165.461 53.8401C162.651 54.5901 159.771 53.1801 158.791 49.5201C157.811 45.8601 159.601 43.1901 162.411 42.4401C164.151 41.9701 165.511 42.4101 166.481 43.3401H166.531L166.131 41.8201L168.961 41.0601L171.831 51.7701L169.001 52.5301L168.601 51.0201H168.551C168.181 52.3301 167.221 53.3801 165.481 53.8401H165.461ZM152.261 45.5201L155.111 44.7601L157.981 55.4701L155.131 56.2301L153.991 51.9601L149.281 53.2201L150.421 57.4901L147.591 58.2501L144.721 47.5401L147.551 46.7801L148.581 50.6301L153.291 49.3701L152.261 45.5201ZM130.921 53.3301C129.551 53.7001 128.741 54.6401 128.901 56.1801L133.951 54.8301C133.491 53.4901 132.311 52.9601 130.911 53.3301H130.921ZM130.441 51.0001C133.691 50.1301 136.191 51.6701 137.171 55.3301L137.321 55.8901L129.321 58.0301C129.921 59.6301 131.381 60.2601 133.031 59.8201C134.561 59.4101 135.401 58.2701 135.841 57.5001L137.831 59.1801C137.121 60.3201 135.961 61.7401 133.711 62.3501C130.211 63.2901 127.331 61.6201 126.421 58.2201C125.511 54.8101 127.091 51.9001 130.451 51.0001H130.441ZM124.351 53.0001L125.041 55.5701L121.471 56.5301L123.651 64.6701L120.801 65.4301L118.621 57.2901L115.051 58.2501L114.361 55.6801L124.351 53.0001ZM105.101 69.6401L102.231 58.9301L105.061 58.1701L106.801 64.6601H106.851L110.071 56.8301L112.641 56.1401L115.511 66.8501L112.661 67.6101L110.921 61.1201H110.871L107.651 68.9501L105.101 69.6301V69.6401ZM109.851 52.3101C110.421 54.4401 109.301 56.1801 107.301 56.7201C105.311 57.2501 103.491 56.3001 102.911 54.1701L104.791 53.6701C105.081 54.5801 105.791 55.1701 106.811 54.8901C107.851 54.6101 108.171 53.7601 107.971 52.8201L109.851 52.3201V52.3101ZM95.9015 69.5901C97.6215 69.1301 98.4715 67.6101 97.9915 65.8001C97.5115 63.9901 96.0015 63.1001 94.2815 63.5601C92.5615 64.0201 91.7115 65.5401 92.1915 67.3501C92.6715 69.1601 94.1815 70.0501 95.9015 69.5901ZM95.9015 72.4801C93.0915 73.2301 90.2115 71.8201 89.2315 68.1601C88.2515 64.5001 90.0415 61.8301 92.8515 61.0801C94.5915 60.6101 95.9515 61.0501 96.9215 61.9801H96.9715L96.5715 60.4601L99.4015 59.7001L102.271 70.4101L99.4415 71.1701L99.0415 69.6601H98.9915C98.6215 70.9701 97.6615 72.0201 95.9215 72.4801H95.9015ZM85.5815 63.3901L88.4515 74.1001L85.6015 74.8601L83.4315 66.7701L78.9315 67.9801L81.1015 76.0701L78.2715 76.8301L75.4015 66.1201L85.5815 63.3901ZM70.8015 67.3501L73.7915 66.5501L71.0415 83.7401L68.1015 84.5301L69.2115 78.1901L61.9715 69.7201L65.3115 68.8301L69.7715 74.6201L70.8115 67.3601L70.8015 67.3501ZM64.4315 80.5301L60.7215 81.5201L55.3415 77.4701L56.7115 82.5901L53.8815 83.3501L51.0115 72.6401L53.8415 71.8801L55.0315 76.3101L57.3715 70.9401L60.9915 69.9701L57.9115 76.0101L64.4415 80.5201L64.4315 80.5301ZM43.4815 77.1801C41.7415 77.6501 40.7815 79.1701 41.2715 81.0001C41.7615 82.8301 43.3515 83.6701 45.0915 83.2101C46.8315 82.7401 47.7615 81.2301 47.2715 79.3901C46.7815 77.5601 45.2115 76.7101 43.4715 77.1801H43.4815ZM42.7615 74.4901C46.1715 73.5801 49.3215 75.2401 50.2215 78.6001C51.1215 81.9601 49.2215 84.9801 45.8115 85.8901C42.4015 86.8001 39.2515 85.1401 38.3515 81.7801C37.4515 78.4201 39.3515 75.4001 42.7615 74.4901ZM34.7015 77.0201L37.5715 87.7301L34.7215 88.4901L32.5515 80.4001L28.0515 81.6101L30.2215 89.7001L27.3915 90.4601L24.5215 79.7501L34.7015 77.0201Z" fill="white"/>
</g>
</svg>
