<svg id="svg-phone" viewBox="0 0 20 20" fill="none" xmlns="http://www.w3.org/2000/svg">
<path d="M18.3023 16.4167C18.3023 16.4167 17.192 17.4952 16.9198 17.8113C16.4766 18.2791 15.9543 18.5 15.2696 18.5C15.2038 18.5 15.1336 18.5 15.0677 18.4957C13.7643 18.4134 12.5529 17.911 11.6444 17.4822C9.16035 16.2954 6.97909 14.6106 5.16649 12.4753C3.66989 10.6952 2.66923 9.0493 2.00651 7.28217C1.59835 6.20369 1.44913 5.36344 1.51496 4.57083C1.55885 4.06408 1.75635 3.64395 2.12062 3.28446L3.61722 1.80752C3.83228 1.60828 4.0605 1.5 4.28433 1.5C4.56083 1.5 4.78466 1.66459 4.9251 1.80318C4.92949 1.80752 4.93388 1.81185 4.93827 1.81618C5.20599 2.06306 5.46054 2.3186 5.72826 2.59147C5.86432 2.73006 6.00476 2.86866 6.1452 3.01159L7.34336 4.19401C7.80858 4.65312 7.80858 5.07758 7.34336 5.53669C7.21608 5.66229 7.0932 5.7879 6.96592 5.90917C6.59726 6.28166 6.88686 5.99585 6.50503 6.33369C6.49625 6.34235 6.48748 6.34668 6.48309 6.35534C6.10565 6.72783 6.17587 7.09165 6.25487 7.33853C6.25926 7.35152 6.26364 7.36451 6.26803 7.37751C6.57964 8.12248 7.01853 8.82413 7.68563 9.66005L7.69002 9.66439C8.90135 11.137 10.1785 12.2848 11.5873 13.164C11.7673 13.2766 11.9516 13.3676 12.1272 13.4542C12.2852 13.5322 12.4344 13.6058 12.5617 13.6837C12.5792 13.6924 12.5968 13.7054 12.6143 13.7141C12.7635 13.7877 12.904 13.8223 13.0488 13.8223C13.4131 13.8223 13.6413 13.5971 13.7159 13.5235L14.5762 12.6745C14.7254 12.5273 14.9624 12.3497 15.2389 12.3497C15.511 12.3497 15.7349 12.5186 15.8709 12.6659C15.8753 12.6702 15.8753 12.6702 15.8797 12.6745L18.2979 15.061C18.75 15.5028 18.3023 16.4167 18.3023 16.4167Z" stroke="currentColor" stroke-width="1.5" stroke-linecap="round" stroke-linejoin="round"/>
</svg>
