<svg id="svg-star" viewBox="0 0 16 16" fill="none" xmlns="http://www.w3.org/2000/svg">
<path fill-rule="evenodd" clip-rule="evenodd" d="M7.99997 12.3784L3.8322 14.939C3.64203 15.0559 3.39108 14.9997 3.27168 14.8136C3.21273 14.7217 3.19468 14.6102 3.22173 14.505L4.42233 9.83463L0.645902 6.74685C0.473586 6.60596 0.450608 6.35502 0.59458 6.18641C0.665678 6.10311 0.768448 6.05188 0.87908 6.04454L5.78887 5.71876L7.62271 1.24972C7.70638 1.0458 7.94314 0.946876 8.15149 1.02876C8.2544 1.0692 8.33594 1.14902 8.37728 1.24972L10.2111 5.71876L15.1209 6.04454C15.3449 6.05939 15.5142 6.24918 15.4991 6.46842C15.4916 6.57669 15.4392 6.67727 15.3541 6.74685L11.5777 9.83463L12.7782 14.505C12.833 14.7181 12.7009 14.9344 12.4832 14.9879C12.3756 15.0144 12.2617 14.9968 12.1678 14.939L7.99997 12.3784Z" fill="currentColor"/>
</svg>
