<svg id="svg-wallet" viewBox="0 0 20 20" fill="none" xmlns="http://www.w3.org/2000/svg">
<path d="M19 14.3846V15.1346C19.4142 15.1346 19.75 14.7988 19.75 14.3846H19ZM19 9.30769H19.75C19.75 8.89348 19.4142 8.55769 19 8.55769V9.30769ZM5.53716 4.5277C5.19134 4.75571 5.09585 5.22088 5.32385 5.56669C5.55186 5.9125 6.01703 6.008 6.36284 5.77999L5.95 5.15385L5.53716 4.5277ZM12.25 1L12.8476 0.546819C12.6089 0.23205 12.167 0.156399 11.8372 0.373853L12.25 1ZM14.8024 5.60703C15.0527 5.93707 15.5231 6.00173 15.8532 5.75145C16.1832 5.50116 16.2479 5.03071 15.9976 4.70067L15.4 5.15385L14.8024 5.60703ZM19 14.3846V13.6346H16.075V14.3846V15.1346H19V14.3846ZM16.075 9.30769V10.0577H19V9.30769V8.55769H16.075V9.30769ZM19 9.30769H18.25V14.3846H19H19.75V9.30769H19ZM13.6 11.8462H14.35C14.35 10.8404 15.1401 10.0577 16.075 10.0577V9.30769V8.55769C14.2761 8.55769 12.85 10.048 12.85 11.8462H13.6ZM16.075 14.3846V13.6346C15.1401 13.6346 14.35 12.8519 14.35 11.8462H13.6H12.85C12.85 13.6443 14.2761 15.1346 16.075 15.1346V14.3846ZM5.95 5.15385L6.36284 5.77999L12.6628 1.62615L12.25 1L11.8372 0.373853L5.53716 4.5277L5.95 5.15385ZM12.25 1L11.6524 1.45318L14.8024 5.60703L15.4 5.15385L15.9976 4.70067L12.8476 0.546819L12.25 1ZM1.9 5.15385V5.90385H17.2V5.15385V4.40385H1.9V5.15385ZM17.2 19V18.25H1.9V19V19.75H17.2V19ZM1 18.0769H1.75V6.07692H1H0.25V18.0769H1ZM1.9 19V18.25C1.83494 18.25 1.75 18.1905 1.75 18.0769H1H0.25C0.25 18.9829 0.970942 19.75 1.9 19.75V19ZM18.1 18.0769H17.35C17.35 18.1905 17.2651 18.25 17.2 18.25V19V19.75C18.1291 19.75 18.85 18.9829 18.85 18.0769H18.1ZM17.2 5.15385V5.90385C17.2651 5.90385 17.35 5.96332 17.35 6.07692H18.1H18.85C18.85 5.17092 18.1291 4.40385 17.2 4.40385V5.15385ZM1.9 5.15385V4.40385C0.970944 4.40385 0.25 5.17092 0.25 6.07692H1H1.75C1.75 5.96332 1.83494 5.90385 1.9 5.90385V5.15385ZM18.1 15.0769H17.35V18.0769H18.1H18.85V15.0769H18.1ZM18.1 6.07692H17.35V8.5H18.1H18.85V6.07692H18.1Z" fill="currentColor"/>
</svg>
