<svg id="svg-yandex" viewBox="0 0 25 24" fill="none" xmlns="http://www.w3.org/2000/svg">
<path d="M0.5 12C0.5 5.3724 5.8712 0 12.5 0C19.1264 0 24.5 5.3724 24.5 12C24.5 18.6276 19.1264 24 12.5 24C5.8712 24 0.5 18.6276 0.5 12Z" fill="#FC3F1D"/>
<path d="M13.8222 7.66606H12.8982C11.2042 7.66606 10.3132 8.52406 10.3132 9.78906C10.3132 11.2191 10.9292 11.8891 12.1942 12.7481L13.2392 13.4521L10.2362 17.9391H7.99219L10.6872 13.9251C9.13719 12.8141 8.26719 11.7351 8.26719 9.91006C8.26719 7.62206 9.86219 6.06006 12.8872 6.06006H15.8902V17.9281H13.8222V7.66606Z" fill="white"/>
</svg>
