<svg width="200" height="33" viewBox="0 0 200 33" fill="none" xmlns="http://www.w3.org/2000/svg">
<g clip-path="url(#clip0_1957_9721)">
<path d="M57.061 7.2809C57.061 7.63353 56.9905 7.98616 56.9199 8.40932C56.8494 8.76195 56.7083 9.11458 56.4968 9.39669C56.2852 9.67879 56.0031 9.9609 55.6505 10.1725C55.2978 10.3841 54.8747 10.5956 54.4515 10.6662V10.8072C54.8747 10.8777 55.2978 11.0188 55.6505 11.1598C56.0031 11.3009 56.3557 11.583 56.6378 11.8651C56.9199 12.1472 57.1315 12.4999 57.2726 12.923C57.4136 13.3462 57.5547 13.8399 57.5547 14.4041C57.5547 15.1799 57.4136 15.8146 57.061 16.3788C56.7083 16.943 56.2852 17.3662 55.721 17.7188C55.1568 18.0714 54.5926 18.3535 53.8873 18.4946C53.182 18.6356 52.4768 18.7767 51.7715 18.7767H50.8547C50.502 18.7767 50.0789 18.7767 49.6557 18.7062C49.2326 18.7062 48.8094 18.6356 48.3157 18.6356C47.8926 18.5651 47.4694 18.4946 47.1168 18.4241V3.82639C47.3989 3.75586 47.681 3.75586 48.0336 3.68533C48.3862 3.61481 48.7389 3.61481 49.162 3.54428C49.5852 3.47375 49.9378 3.47375 50.361 3.47375H51.6305C52.3357 3.47375 52.9705 3.54428 53.6052 3.61481C54.2399 3.68533 54.8747 3.89691 55.3683 4.17902C55.862 4.46112 56.2852 4.81376 56.6378 5.30744C56.9199 5.94218 57.061 6.50639 57.061 7.28218V7.2809ZM51.7728 16.448C52.1254 16.448 52.478 16.3775 52.7602 16.307C53.1128 16.2365 53.3949 16.0954 53.677 15.9544C53.9591 15.7428 54.1707 15.5312 54.3117 15.2491C54.4528 14.967 54.5233 14.6849 54.5233 14.2617C54.5233 13.768 54.4528 13.4154 54.2412 13.1333C54.0296 12.8512 53.818 12.6396 53.5359 12.4986C53.2538 12.3575 52.9012 12.2165 52.5486 12.2165C52.1959 12.1459 51.8433 12.1459 51.4202 12.1459H49.8686V16.2365C49.9391 16.2365 50.0801 16.307 50.2212 16.307C50.3623 16.307 50.5738 16.307 50.7149 16.3775H51.2791C51.4907 16.448 51.6317 16.448 51.7728 16.448ZM50.8559 10.0314H51.5612C51.8433 10.0314 52.0549 9.9609 52.1959 9.9609C52.7602 9.81985 53.1833 9.53774 53.5359 9.18511C53.9591 8.83248 54.1002 8.40932 54.1002 7.84511C54.1002 7.49248 54.0296 7.13984 53.8886 6.92827C53.7475 6.71669 53.5359 6.50511 53.3244 6.36405C53.1128 6.223 52.8307 6.15248 52.5486 6.08195C52.2665 6.01142 51.9138 6.01142 51.6317 6.01142H50.6444C50.3623 6.01142 50.0802 6.01142 49.9391 6.08195V10.0314H50.8559ZM68.6965 3.82639H71.4471V13.4167C71.4471 14.4041 71.306 15.1799 71.0944 15.8851C70.8123 16.5904 70.4597 17.1546 70.0366 17.5778C69.6134 18.0009 69.0492 18.3535 68.4144 18.5651C67.7797 18.7767 67.0744 18.8472 66.2987 18.8472C62.5608 18.8472 60.6578 17.1546 60.6578 13.6988V3.82639H63.5494V13.2051C63.5494 13.7693 63.6199 14.263 63.6905 14.6862C63.8315 15.1093 63.9726 15.3914 64.1841 15.6735C64.3957 15.8851 64.6778 16.0967 65.0305 16.2377C65.3831 16.3083 65.7357 16.3788 66.2294 16.3788C67.1462 16.3788 67.781 16.0967 68.1336 15.603C68.5568 15.1093 68.6978 14.3335 68.6978 13.2051V3.82639H68.6965ZM78.6395 10.8777L77.4405 8.55037H77.2995L77.6521 10.8777V18.6344H74.9016V3.68533H77.0174L82.5877 11.583L83.7161 13.8399H83.8572L83.5045 11.583V3.82639H86.2551V18.7767H84.1393L78.6395 10.879V10.8777ZM93.6603 10.8777L92.4614 8.55037H92.3909L92.7435 10.8777V18.6344H89.993V3.68533H92.1087L97.7496 11.583L98.878 13.8399H99.019L98.6664 11.583V3.82639H101.417V18.7767H99.3012L93.6603 10.879V10.8777ZM108.47 13.1346L103.603 3.82639H107.059L109.739 9.39669L110.021 10.9483H110.092L110.374 9.32616L112.983 3.82639H116.086L111.22 13.1346V18.6344H108.329V13.1346H108.47ZM127.862 18.6344H118.483V3.82639H121.375V16.0262H127.862V18.6356V18.6344ZM128.003 11.2304C128.003 8.76195 128.567 6.85774 129.625 5.51902C130.683 4.17902 132.234 3.54428 134.28 3.54428C135.338 3.54428 136.254 3.75586 137.03 4.10849C137.806 4.46112 138.511 5.02534 139.005 5.66007C139.499 6.36534 139.922 7.14113 140.204 8.05797C140.486 8.97481 140.557 10.0327 140.557 11.2317C140.557 13.7001 139.992 15.6043 138.934 16.943C137.877 18.283 136.325 18.9178 134.28 18.9178C133.222 18.9178 132.305 18.7062 131.459 18.3535C130.683 18.0009 129.978 17.4367 129.484 16.802C128.99 16.0967 128.567 15.3209 128.355 14.4041C128.144 13.4167 128.003 12.3588 128.003 11.2304ZM131.035 11.2304C131.035 12.0062 131.106 12.6409 131.247 13.2756C131.388 13.9104 131.529 14.4041 131.811 14.8977C132.093 15.3209 132.446 15.6735 132.799 15.9556C133.151 16.2377 133.715 16.3083 134.28 16.3083C135.338 16.3083 136.113 15.8851 136.678 15.1093C137.242 14.3335 137.524 12.9935 137.524 11.1598C137.524 10.4546 137.453 9.74932 137.312 9.18511C137.171 8.55037 137.03 7.98616 136.748 7.563C136.466 7.06932 136.184 6.71669 135.761 6.50511C135.338 6.223 134.844 6.08195 134.28 6.08195C133.222 6.08195 132.446 6.50511 131.882 7.35142C131.318 8.12721 131.035 9.46722 131.035 11.2304ZM147.748 12.4999L148.1 15.0388H148.171L148.594 12.4999L151.415 3.82639H154.448L148.948 18.7767H146.903L141.332 3.82639H144.718L147.75 12.4999H147.748ZM156.703 3.82639H165.447V6.43586H159.595V9.89166H164.955V12.5011H159.595V16.098H165.588V18.7075H156.703V3.82639Z" fill="#010101"/>
<path d="M47.1168 23.6417C47.3989 23.6417 47.7515 23.5712 48.1747 23.5712C48.5978 23.5712 49.021 23.5007 49.5147 23.5007C50.4315 23.5007 51.1368 23.6417 51.4894 23.9238C51.9126 24.2059 52.1241 24.5586 52.1241 25.1228C52.1241 25.4049 52.0536 25.687 51.842 25.9691C51.701 26.2512 51.4189 26.4628 51.0662 26.6038V26.6744C51.5599 26.7449 51.842 26.9565 52.0536 27.2386C52.2652 27.5207 52.3357 27.8028 52.3357 28.2259C52.3357 28.8607 52.1241 29.3544 51.6305 29.6365C51.1368 29.9186 50.361 30.1302 49.3031 30.1302C48.9504 30.1302 48.5978 30.1302 48.1747 30.0596C47.7515 30.0596 47.3989 29.9891 47.1168 29.9891V23.643V23.6417ZM48.7389 28.7196C48.8799 28.7196 48.9504 28.7196 49.0915 28.7902H49.4441C49.9378 28.7902 50.2199 28.7196 50.4315 28.5786C50.6431 28.4375 50.7136 28.2259 50.7136 28.0144C50.7136 27.8028 50.6431 27.5912 50.4315 27.4502C50.2904 27.3091 50.0083 27.2386 49.5852 27.2386H48.7389V28.7196ZM49.5852 26.2512C49.8673 26.2512 50.0789 26.1807 50.2199 26.0396C50.4315 25.8986 50.502 25.7575 50.502 25.5459C50.502 25.3344 50.4315 25.1933 50.2904 25.0523C50.1494 24.9112 49.8673 24.8407 49.5147 24.8407H48.7389V26.1807H49.5852V26.2512ZM59.4576 25.1228H58.1881C58.1176 25.7575 58.0471 26.3217 57.9765 26.9565C57.906 27.5207 57.765 28.0849 57.6239 28.5786C57.4829 29.0723 57.2713 29.4249 56.9892 29.707C56.7071 29.9891 56.425 30.1302 56.0018 30.1302C55.5081 30.1302 55.1555 30.0596 54.9439 29.9186L55.1555 28.5081C55.2965 28.5786 55.4376 28.5786 55.5081 28.5786C55.6492 28.5786 55.8607 28.5081 55.9313 28.367C56.0018 28.2259 56.1429 27.9438 56.2839 27.5912C56.3544 27.2386 56.425 26.7449 56.4955 26.0396C56.566 25.4049 56.566 24.5586 56.6365 23.5712H61.0092V29.9173H59.3165V25.1215H59.4576V25.1228ZM70.3174 30.2007C69.8237 30.2007 69.4005 30.1302 69.1184 29.9891C68.7658 29.8481 68.4837 29.707 68.2721 29.4249C68.0605 29.2133 67.9195 28.9312 67.7784 28.5786C67.6374 28.2259 67.5668 27.8733 67.5668 27.4502H66.5795V30.0596H64.8868V23.7135H66.5795V26.1114H67.5668C67.6374 25.2651 67.9195 24.6304 68.3426 24.2072C68.7658 23.7841 69.4711 23.502 70.3174 23.502C70.8111 23.502 71.2342 23.5725 71.5869 23.7135C71.9395 23.8546 72.2216 24.1367 72.4332 24.4188C72.6447 24.7009 72.8563 25.0535 72.9268 25.4767C73.0679 25.8999 73.0679 26.323 73.0679 26.8872C73.0679 27.9451 72.8563 28.7914 72.3626 29.3557C72.01 29.9199 71.3047 30.202 70.3174 30.202V30.2007ZM69.189 26.8154C69.189 27.4502 69.2595 27.9438 69.4711 28.2965C69.6826 28.6491 69.9647 28.7902 70.3879 28.7902C70.8111 28.7902 71.0932 28.6491 71.2342 28.367C71.3753 28.0849 71.5163 27.5912 71.5163 26.8154C71.5163 26.1807 71.4458 25.687 71.3047 25.3344C71.1637 24.9817 70.8111 24.8407 70.3879 24.8407C69.9647 24.8407 69.6826 24.9817 69.5416 25.2638C69.2595 25.6165 69.189 26.1102 69.189 26.8154ZM77.8624 24.8407C78.074 24.4881 78.4266 24.2059 78.7087 24.0649C79.0614 23.9238 79.4845 23.7828 79.9077 23.7828C80.6835 23.7828 81.3182 23.9944 81.7414 24.4881C82.2351 24.9817 82.4466 25.687 82.4466 26.6744C82.4466 27.8028 82.1645 28.7196 81.6708 29.2838C81.1772 29.8481 80.4014 30.2007 79.4845 30.2007C78.4972 30.2007 77.7214 29.8481 77.2277 29.2133C76.734 28.5786 76.4519 27.5207 76.4519 26.1807C76.4519 25.4754 76.5224 24.8407 76.5929 24.2765C76.6635 23.7828 76.8045 23.2891 76.9456 22.9365C77.0866 22.5838 77.2982 22.3017 77.5098 22.0902C77.7214 21.8786 78.0035 21.7375 78.2151 21.5965C78.4972 21.4554 78.7793 21.3849 79.0614 21.3144C79.3435 21.2438 79.6961 21.2438 80.0487 21.1733C80.4719 21.1028 80.8951 21.1028 81.1772 21.0323C81.4593 20.9617 81.7414 20.8912 81.8824 20.6796L81.9529 22.1607C81.8119 22.3017 81.5298 22.3723 81.2477 22.4428C80.9656 22.5133 80.5424 22.5133 79.9782 22.5838C79.6256 22.5838 79.3435 22.6544 79.1319 22.7249C78.8498 22.7954 78.6382 22.8659 78.4972 23.0775C78.2856 23.2186 78.1445 23.4302 78.074 23.7123C77.9329 24.0649 77.8624 24.4175 77.8624 24.8407ZM78.1445 26.8859C78.1445 27.4502 78.215 27.8733 78.4972 28.2259C78.7087 28.5786 79.0614 28.7902 79.4845 28.7902C79.9782 28.7902 80.2603 28.6491 80.4719 28.2965C80.6835 27.9438 80.754 27.5207 80.754 26.8859C80.754 26.3217 80.6835 25.8986 80.4719 25.6165C80.2603 25.3344 79.9782 25.1933 79.555 25.1933C79.0614 25.1933 78.7087 25.3344 78.4972 25.687C78.2856 25.9691 78.1445 26.3923 78.1445 26.8859ZM89.498 25.1228H88.2285C88.158 25.7575 88.0875 26.3217 88.0169 26.9565C87.9464 27.5207 87.8054 28.0849 87.6643 28.5786C87.5233 29.0723 87.3117 29.4249 87.0296 29.707C86.7475 29.9891 86.4654 30.1302 86.0422 30.1302C85.5485 30.1302 85.1959 30.0596 84.9843 29.9186L85.1959 28.5081C85.3369 28.5786 85.478 28.5786 85.5485 28.5786C85.6896 28.5786 85.9011 28.5081 85.9717 28.367C86.0422 28.2259 86.1833 27.9438 86.3243 27.5912C86.3948 27.2386 86.4654 26.7449 86.5359 26.0396C86.6064 25.4049 86.6064 24.5586 86.6769 23.5712H91.0496V29.9173H89.498V25.1215V25.1228ZM100.076 29.4954C99.7936 29.707 99.4409 29.8481 99.0178 29.9891C98.5946 30.1302 98.1009 30.2007 97.6072 30.2007C96.5493 30.2007 95.8441 29.9186 95.3504 29.2838C94.8567 28.6491 94.6451 27.8733 94.6451 26.8154C94.6451 25.687 94.9272 24.8407 95.4209 24.2765C95.9851 23.7123 96.6904 23.4302 97.6778 23.4302C98.0304 23.4302 98.3125 23.5007 98.5946 23.5712C98.8767 23.6417 99.1588 23.7828 99.4409 23.9944C99.6525 24.2059 99.8641 24.4881 100.005 24.7702C100.146 25.1228 100.217 25.5459 100.217 26.0396C100.217 26.2512 100.217 26.3923 100.146 26.6038C100.146 26.8154 100.076 27.027 100.076 27.2386H96.2672C96.2672 27.8028 96.4083 28.1554 96.6904 28.4375C96.9725 28.7196 97.3251 28.8607 97.8894 28.8607C98.242 28.8607 98.5241 28.7902 98.8062 28.7196C99.0883 28.5786 99.2999 28.5081 99.4409 28.367L100.076 29.4954ZM97.7483 24.7702C97.3251 24.7702 96.9725 24.9112 96.7609 25.1933C96.5494 25.4754 96.4083 25.8281 96.4083 26.2512H98.8062C98.8062 25.7575 98.7357 25.4049 98.5946 25.1933C98.383 24.9112 98.1009 24.7702 97.7483 24.7702ZM107.621 27.5207H105.575V29.9891H103.883V23.643H105.575V26.0409H107.621V23.643H109.313V29.9891H107.621V27.5207ZM116.929 27.5207H114.884V29.9891H113.191V23.643H114.884V26.0409H116.929V23.643H118.622V29.9891H116.929V27.5207ZM124.121 28.6491C124.403 28.7196 124.615 28.7196 124.827 28.7196C125.179 28.7196 125.461 28.6491 125.602 28.5081C125.743 28.367 125.814 28.1554 125.814 27.8733C125.814 27.5912 125.743 27.3796 125.602 27.2386C125.461 27.0975 125.179 27.027 124.827 27.027C124.544 27.027 124.262 27.027 124.051 27.0975V28.6491H124.121ZM124.121 25.8986C124.333 25.8986 124.544 25.8281 124.756 25.8281H125.32C125.743 25.8281 126.096 25.8986 126.378 25.9691C126.66 26.0396 126.872 26.1807 127.083 26.3923C127.295 26.6038 127.366 26.8154 127.436 27.027C127.507 27.2386 127.577 27.5207 127.577 27.8028C127.577 28.1554 127.507 28.5081 127.436 28.7902C127.366 29.0723 127.154 29.3544 126.942 29.4954C126.731 29.707 126.449 29.8481 126.026 29.9186C125.673 29.9891 125.179 30.0596 124.686 30.0596H123.416C123.063 30.0596 122.711 29.9891 122.429 29.9891V23.643H124.121V25.8999V25.8986ZM128.282 23.6417H129.975V29.9878H128.282V23.6417ZM137.661 27.0975L137.732 26.1807H137.661L137.097 27.0975L134.84 29.9891H133.782V23.643H135.475V26.6757L135.404 27.522H135.475L135.968 26.6051L138.296 23.5725H139.354V29.9186H137.661V27.0975ZM135.898 21.0335C135.968 21.3862 136.039 21.5978 136.18 21.7388C136.321 21.8799 136.533 21.9504 136.744 21.9504C136.956 21.9504 137.167 21.8799 137.308 21.7388C137.45 21.5978 137.52 21.3862 137.591 21.0335L138.86 21.3862C138.79 21.9504 138.507 22.3735 138.084 22.6556C137.661 22.9378 137.238 23.0788 136.674 23.0788C136.392 23.0788 136.18 23.0788 135.898 23.0083C135.686 22.9378 135.404 22.8672 135.263 22.7262C135.052 22.5851 134.911 22.4441 134.77 22.2325C134.628 22.0209 134.558 21.8093 134.487 21.4567L135.898 21.0335ZM150.989 27.3796H150.566V29.9891H148.874V23.643H150.566V26.3935L150.989 26.182L152.47 23.643H154.234L152.682 26.0409L152.047 26.5346L152.752 27.0283L154.445 29.9904H152.541L150.989 27.3809V27.3796ZM157.547 23.6417H158.746L158.958 24.4175H159.028C159.24 24.0649 159.522 23.8533 159.804 23.7123C160.086 23.5712 160.509 23.5007 160.932 23.5007C161.708 23.5007 162.343 23.7828 162.766 24.2765C163.189 24.7702 163.401 25.6165 163.401 26.7449C163.401 27.3091 163.33 27.8028 163.189 28.2259C163.048 28.6491 162.836 29.0017 162.625 29.3544C162.343 29.6365 162.061 29.9186 161.708 30.0596C161.355 30.2007 160.932 30.2712 160.439 30.2712C160.156 30.2712 159.945 30.2712 159.804 30.2007C159.663 30.2007 159.451 30.1302 159.31 29.9891V32.5986H157.618V23.643H157.547V23.6417ZM160.368 24.8407C160.015 24.8407 159.804 24.9112 159.592 25.0523C159.381 25.1933 159.24 25.4754 159.169 25.7575V28.4375C159.31 28.5081 159.451 28.5786 159.522 28.6491C159.663 28.7196 159.874 28.7196 160.086 28.7196C160.58 28.7196 160.932 28.5786 161.144 28.2259C161.355 27.8733 161.496 27.3091 161.496 26.5333C161.496 25.9691 161.426 25.5459 161.214 25.2638C161.073 25.0523 160.791 24.8407 160.368 24.8407ZM166.503 26.8154C166.503 25.7575 166.785 24.9112 167.278 24.347C167.772 23.7828 168.548 23.5007 169.465 23.5007C169.958 23.5007 170.452 23.5712 170.805 23.7123C171.157 23.8533 171.51 24.1354 171.722 24.4175C171.933 24.6996 172.145 25.0523 172.286 25.4754C172.427 25.8986 172.497 26.3217 172.497 26.8859C172.497 27.9438 172.215 28.7902 171.722 29.3544C171.228 29.9186 170.452 30.2007 169.535 30.2007C169.041 30.2007 168.548 30.1302 168.195 29.9891C167.843 29.8481 167.49 29.6365 167.278 29.2838C166.996 29.0017 166.855 28.6491 166.714 28.2259C166.573 27.8028 166.503 27.3091 166.503 26.8154ZM168.266 26.8154C168.266 27.0975 168.266 27.3796 168.336 27.5912C168.407 27.8028 168.477 28.0144 168.548 28.2259C168.618 28.4375 168.759 28.5786 168.971 28.6491C169.112 28.7196 169.324 28.7902 169.606 28.7902C170.029 28.7902 170.382 28.6491 170.593 28.2965C170.805 28.0144 170.946 27.4502 170.946 26.8154C170.946 26.2512 170.875 25.7575 170.664 25.4049C170.452 25.0523 170.17 24.8407 169.676 24.8407C169.253 24.8407 168.971 24.9817 168.689 25.3344C168.407 25.687 168.266 26.1102 168.266 26.8154ZM179.549 25.1228H178.35C178.279 25.7575 178.209 26.3217 178.138 26.9565C178.068 27.5207 177.927 28.0849 177.785 28.5786C177.644 29.0723 177.433 29.4249 177.151 29.707C176.869 29.9891 176.587 30.1302 176.163 30.1302C175.67 30.1302 175.317 30.0596 175.105 29.9186L175.317 28.5081C175.458 28.5786 175.599 28.5786 175.67 28.5786C175.811 28.5786 176.022 28.5081 176.093 28.367C176.163 28.2259 176.304 27.9438 176.445 27.5912C176.516 27.2386 176.587 26.7449 176.657 26.0396C176.728 25.4049 176.728 24.5586 176.798 23.5712H181.171V29.9173H179.478V25.1215H179.549V25.1228ZM188.927 27.0975L188.998 26.1807H188.927L188.363 27.0975L186.106 29.9891H185.048V23.643H186.741V26.6757L186.671 27.522H186.741L187.235 26.6051L189.562 23.5725H190.62V29.9186H188.927V27.0975ZM196.543 27.3796H196.12V29.9891H194.427V23.643H196.12V26.3935L196.543 26.182L198.024 23.643H199.787L198.236 26.0409L197.601 26.5346L198.306 27.0283L199.999 29.9904H198.095L196.543 27.3809V27.3796Z" fill="#010101"/>
<path d="M168.408 17.2238C168.408 16.7301 168.549 16.3775 168.831 16.0954C169.113 15.8133 169.536 15.6722 170.03 15.6722C170.524 15.6722 170.947 15.8133 171.3 16.0954C171.582 16.3775 171.723 16.7301 171.723 17.2238C171.723 17.7175 171.582 18.0701 171.3 18.3522C171.018 18.6343 170.594 18.7754 170.03 18.7754C169.536 18.7754 169.113 18.6343 168.831 18.3522C168.549 18.1407 168.408 17.7175 168.408 17.2238Z" fill="#010101"/>
<path d="M175.177 4.24954C175.53 4.17902 175.812 4.10849 176.235 4.10849C176.588 4.03796 176.94 4.03796 177.364 3.96744C177.716 3.96744 178.069 3.89691 178.421 3.89691H179.409C180.114 3.89691 180.749 3.96744 181.384 4.10849C182.018 4.24954 182.653 4.46112 183.147 4.74323C183.64 5.02533 184.064 5.44849 184.416 6.0127C184.698 6.57691 184.91 7.21165 184.91 7.98744C184.91 9.18639 184.628 10.1738 184.064 10.879C183.499 11.6548 182.794 12.1485 181.877 12.4306L182.865 13.0653L186.179 18.5651H182.935L179.62 12.8538L178.139 12.5717V18.4946H175.318V4.24954H175.177ZM179.55 6.43586H178.704C178.421 6.43586 178.21 6.50639 178.069 6.50639V10.738H179.268C180.044 10.738 180.678 10.5264 181.172 10.1738C181.666 9.82113 181.877 9.18639 181.877 8.4106C181.877 7.77586 181.666 7.28218 181.313 6.92955C180.89 6.57691 180.255 6.43586 179.55 6.43586Z" fill="#010101"/>
<path d="M196.826 4.10846H199.506V13.4872C199.506 14.404 199.365 15.2503 199.154 15.8851C198.872 16.5903 198.59 17.1546 198.096 17.5777C197.673 18.0009 197.108 18.3535 196.474 18.5651C195.839 18.7767 195.134 18.8472 194.358 18.8472C190.691 18.8472 188.858 17.1546 188.858 13.8398V4.10846H191.679V13.2756C191.679 13.8398 191.75 14.3335 191.82 14.6861C191.891 15.1093 192.102 15.3914 192.314 15.6735C192.526 15.9556 192.808 16.0967 193.16 16.1672C193.513 16.2377 193.866 16.3082 194.289 16.3082C195.135 16.3082 195.77 16.0967 196.193 15.603C196.546 15.1093 196.757 14.3335 196.757 13.2756V4.10846H196.828H196.826Z" fill="#010101"/>
<path d="M19.6294 4.79068C19.8615 4.42523 20.0654 4.08029 20.2936 3.74945C21.4221 2.11581 23.0326 1.07971 24.9945 0.494982C26.1332 0.155173 27.3078 -0.0410189 28.5016 0.00899071C32.864 0.192359 36.0967 2.06836 38.1022 5.70368C38.8036 6.97443 39.105 8.34136 39.1793 9.77754C39.3473 13.0307 38.1779 15.9031 36.4032 18.6126C34.7028 21.2092 32.5242 23.4327 30.116 25.4665C27.0052 28.0939 23.5789 30.3225 20.0077 32.3665C19.7397 32.5204 19.4858 32.5165 19.2139 32.3614C16.0595 30.5623 13.0192 28.6132 10.2109 26.3653C7.504 24.1995 5.04071 21.8222 3.09931 19.0152C1.69391 16.9841 0.62832 14.8118 0.19875 12.4088C-0.33725 9.41465 0.184645 6.61026 2.13117 4.12901C3.78662 2.02092 6.02679 0.686044 8.7863 0.201335C11.7535 -0.32056 14.531 0.15902 17.0135 1.82344C18.0124 2.4928 18.7639 3.37118 19.3409 4.38034C19.4024 4.48806 19.4627 4.59577 19.5268 4.7022C19.5409 4.72656 19.5717 4.74195 19.6294 4.79196V4.79068Z" fill="#E1111A"/>
<path d="M34.3169 9.92112C33.854 8.35543 32.4242 7.22316 30.9534 6.44224C29.4185 5.62542 27.5566 4.93041 25.7832 4.79193C24.7907 4.71114 23.7674 4.84322 22.9083 5.33306C20.386 6.76795 20.5694 9.81341 20.5014 11.3227L20.4373 12.7358C20.4347 12.7909 20.3886 12.8332 20.3334 12.8319C20.0911 12.8242 19.8487 12.8165 19.6064 12.8165C19.3653 12.8165 19.1255 12.8307 18.8857 12.8409C18.8306 12.8435 18.7844 12.8012 18.7818 12.746L18.7011 11.3329C18.6139 9.82494 18.76 6.77692 16.2211 5.37281C15.3555 4.89323 14.331 4.77397 13.3398 4.8663C11.5676 5.02659 9.71471 5.74467 8.19006 6.58073C6.72952 7.3796 5.31386 8.52982 4.87019 10.1006C4.42651 11.6625 5.34464 13.4987 6.93725 14.1771C8.94277 15.0324 11.4343 13.8744 12.8422 12.5242C13.668 11.7292 14.3066 10.7918 14.9003 9.8352C14.9465 9.76083 15.0593 9.7775 15.0824 9.86213C15.4171 11.1226 15.7454 12.3831 16.0749 13.6423L16.0788 13.6513C14.6708 14.4797 13.9001 16.6801 13.9104 18.2548C13.9219 20.218 15.6428 21.0066 17.3623 21.6759C17.4406 21.7067 17.4495 21.8131 17.3764 21.8555C17.338 21.8773 17.2969 21.9016 17.2546 21.9286C16.8494 22.1863 16.2429 22.471 15.4504 23.2583C14.658 24.0456 15.8313 24.7676 16.3865 24.5137C16.9905 24.2367 17.4662 23.3622 17.4662 23.3622C17.4662 23.3622 17.4983 23.3365 17.5496 23.6263C17.5996 23.9136 17.5829 24.0764 17.2585 26.0306C16.9276 28.0284 17.3893 27.6809 18.4228 27.6899C19.3884 27.6989 19.3166 27.0436 19.4409 26.5294C19.4807 26.3653 19.5243 26.0332 19.5987 25.8229C19.6294 25.7344 19.7551 25.7344 19.7872 25.8229C19.8641 26.0319 19.9115 26.364 19.9539 26.5269C20.0847 27.0385 20.0218 27.6951 20.9861 27.6745C22.0184 27.6527 22.4864 27.9938 22.1299 26.0011C21.7824 24.052 21.7619 23.8879 21.8093 23.6007C21.8568 23.3096 21.8901 23.3352 21.8901 23.3352C21.8901 23.3352 22.3761 24.2046 22.9826 24.4739C23.5404 24.7214 24.7048 23.9854 23.9021 23.207C23.1006 22.4287 22.4902 22.1517 22.0825 21.8991C22.0389 21.8721 21.9978 21.8491 21.9594 21.8273C21.8863 21.7862 21.894 21.6785 21.9722 21.6477C23.6841 20.9566 25.3934 20.1474 25.3818 18.1842C25.3716 16.6096 24.5753 14.4194 23.157 13.6077L23.1596 13.5987C23.4725 12.337 23.7866 11.0726 24.1059 9.80699C24.1277 9.72108 24.2406 9.70313 24.288 9.7775C24.8933 10.7264 25.5434 11.6561 26.3782 12.4408C27.8028 13.7731 30.3084 14.9016 32.3037 14.0206C33.8873 13.3218 34.7836 11.4753 34.3207 9.91855L34.3169 9.92112Z" fill="white"/>
<path d="M96.407 22.6941C96.8638 22.6941 97.2341 22.3238 97.2341 21.867C97.2341 21.4102 96.8638 21.0399 96.407 21.0399C95.9503 21.0399 95.58 21.4102 95.58 21.867C95.58 22.3238 95.9503 22.6941 96.407 22.6941Z" fill="#010101"/>
<path d="M98.8434 22.6941C99.3002 22.6941 99.6705 22.3238 99.6705 21.867C99.6705 21.4102 99.3002 21.0399 98.8434 21.0399C98.3866 21.0399 98.0163 21.4102 98.0163 21.867C98.0163 22.3238 98.3866 22.6941 98.8434 22.6941Z" fill="#010101"/>
</g>
<defs>
<clipPath id="clip0_1957_9721">
<rect width="200" height="32.5973" fill="white"/>
</clipPath>
</defs>
</svg>
