<svg width="66" height="66" viewBox="0 0 66 66" fill="none" xmlns="http://www.w3.org/2000/svg">
<path d="M62.5605 28.9911C62.0375 26.594 60.6375 24.3174 58.5111 22.4091C57.8121 21.7812 56.9922 21.2234 55.9325 20.6538C55.5225 20.4336 55.1027 20.2253 54.6967 20.0239L54.5945 19.9736C54.4814 19.9173 54.3674 19.8719 54.2681 19.8314C54.2337 19.8176 54.1934 19.8018 54.154 19.785C54.4382 19.3457 54.8609 18.9093 55.2718 18.4877C55.5746 18.1758 55.8882 17.8529 56.1527 17.5232C56.7828 16.7344 57.3914 15.912 57.9616 15.0778C58.1307 14.83 58.3037 14.5802 58.4777 14.3295C59.5414 12.7943 60.6415 11.2068 61.3051 9.44555C62.065 7.42762 61.8625 5.52815 60.7349 4.09763C59.6623 2.73721 58.4698 2.04811 57.1908 2.04811C57.179 2.04811 57.1662 2.04811 57.1544 2.04811C55.4969 2.06489 53.7746 3.23972 52.0355 5.54C50.1607 8.01997 49.7468 11.7073 49.445 14.4005C49.388 14.9119 49.3831 15.449 49.3782 15.9693C49.3723 16.6011 49.3664 17.2527 49.2622 17.8273C49.2602 17.8273 49.2582 17.8253 49.2563 17.8243C49.1609 17.7829 49.0528 17.7345 48.9299 17.692C48.4246 17.5153 47.8731 17.3712 47.2606 17.5153C47.0728 17.5597 46.8821 17.6476 46.6973 17.7335C46.6058 17.7759 46.4731 17.8372 46.3699 17.8747C46.2451 17.1313 46.3198 16.2783 46.3925 15.452C46.4299 15.0284 46.4682 14.5901 46.478 14.1745C46.5164 12.6324 46.5026 11.0676 46.4387 9.52552C46.4289 9.29648 46.421 9.06151 46.4132 8.8226C46.3434 6.75037 46.2647 4.40072 45.0545 2.63157C44.443 1.73811 43.4924 0.991754 42.3058 0.474437C40.8921 -0.141606 39.5895 -0.158389 38.6369 0.428036C37.8907 0.887106 37.4867 1.63346 37.2792 2.17941C36.0425 5.42746 36.6746 9.40112 37.1613 11.4813C37.5112 12.9769 38.0293 14.4529 38.7008 15.8696C39.0321 16.5685 39.4047 17.2586 39.8068 17.9201C39.8225 17.9467 39.854 18 39.8962 18.0731C40.142 18.4986 40.3406 18.8343 40.5077 19.0949C38.7686 19.5589 37.1082 20.4089 35.664 21.5818C34.8333 22.2571 34.0871 23.0271 33.4481 23.8722C33.0804 24.3579 32.7649 24.8367 32.4798 25.4725C31.6284 24.1101 30.6728 22.9343 29.6376 22.0004C28.9859 21.413 28.3056 20.9746 27.6085 20.6913C27.7413 20.249 27.7786 19.7317 27.8101 19.2864C27.8238 19.0969 27.8366 18.9172 27.8553 18.777C27.9369 18.1699 28.0214 17.542 28.0834 16.918C28.4137 13.6058 29.1864 5.84901 23.92 3.7748C22.699 3.29401 21.3541 3.41347 20.4113 4.08677C18.8521 5.1994 18.624 7.32396 18.4412 9.03091C18.4127 9.30042 18.3852 9.55513 18.3537 9.79602C18.0135 12.4201 18.1148 14.6908 18.6634 16.7393C18.8796 17.5479 19.2188 18.2725 19.5462 18.9725C19.5953 19.0771 19.6445 19.1828 19.6937 19.2894C19.6799 19.2894 19.6661 19.2894 19.6533 19.2894C19.4734 19.2864 19.2876 19.2845 19.1028 19.3141C18.8482 19.3555 18.6122 19.4227 18.3979 19.5145C18.3291 19.1897 18.2426 18.8747 18.1581 18.5667C18.1069 18.3801 18.0558 18.1926 18.0086 18.003C17.7973 17.1589 17.5446 16.2773 17.2585 15.3838C16.1761 12.0035 14.9522 9.23329 13.5159 6.91326C11.6421 3.88439 9.55795 2.37193 7.32829 2.41339C5.89691 2.44103 4.47536 3.33745 3.70658 4.69689C3.03021 5.87961 2.83261 7.37332 3.14326 8.89862C3.48636 10.5799 4.39179 12.0519 5.26675 13.4745C5.43289 13.745 5.60493 14.0244 5.76714 14.2969C7.50722 17.2162 9.65724 20.02 11.3855 22.2738C11.4475 22.3538 11.5035 22.4436 11.5625 22.5394C11.6195 22.6302 11.6775 22.724 11.7483 22.8208C11.8122 22.9086 11.8427 22.962 11.8574 22.9945C11.8328 23.0172 11.8004 23.0429 11.7817 23.0587L11.648 23.1673C11.2735 23.4704 10.8871 23.7833 10.5243 24.1299C8.6191 25.9563 7.16313 28.2516 6.31669 30.7681C5.4437 33.3616 5.26183 36.0746 5.79074 38.6138C6.26655 40.8933 7.2929 43.0741 8.73412 44.9104C8.59649 45.3784 8.45394 45.8532 8.31434 46.3153C8.27698 46.4397 8.23962 46.5641 8.20128 46.6894C7.94273 46.9827 7.05401 48.0124 6.12794 49.3037C4.65231 51.3621 3.84421 53.0207 3.72624 54.233C3.64071 55.1038 3.85502 55.8284 4.36132 56.3862C5.05341 57.1483 6.11516 57.3744 6.70501 57.4406C6.91638 58.7171 7.34402 60.0518 8.1305 61.2839C9.02806 62.6907 10.3661 63.9149 12.1051 64.9229C12.8621 65.3622 14.0173 65.9506 15.2914 65.998C15.3326 65.999 15.373 66 15.4142 66C16.0601 66 16.6244 65.8095 17.0511 65.4462C17.2251 65.2981 17.345 65.1075 17.4502 64.9397C17.5072 64.8489 17.6409 64.6356 17.6901 64.6297C17.7186 64.6257 17.8061 64.6504 17.871 64.6682C19.4243 65.0888 21.5537 65.4146 25.5657 64.6376C25.6886 64.6139 25.8232 64.5734 25.9668 64.531C26.1349 64.4816 26.4465 64.3888 26.5478 64.4036C26.5871 64.4105 26.6707 64.5053 26.7375 64.5813C26.8024 64.6544 26.8761 64.7373 26.9656 64.8163C27.347 65.1529 27.7639 65.3731 28.2023 65.4718C29.5787 65.7798 30.9402 65.1865 32.1406 63.758C33.1552 62.5506 33.8227 61.0174 34.1088 59.9847C34.1963 59.6698 34.27 59.3509 34.3349 59.029C34.4519 59.4131 34.5885 59.7922 34.7497 60.1654C35.4812 61.8624 36.6668 63.2683 38.0864 64.1252C38.7706 64.5379 39.7065 64.8982 40.5864 64.8982C40.8783 64.8982 41.1644 64.8587 41.4328 64.7679C42.0325 64.5645 42.4818 64.1252 42.7315 63.4954C42.7462 63.4569 42.761 63.4183 42.7747 63.3789C42.7934 63.3275 42.82 63.2545 42.8347 63.2258C42.8947 63.2219 43.0205 63.2545 43.2112 63.3246C45.1253 64.0265 47.3609 63.9959 50.2453 63.2278C50.3406 63.2021 50.436 63.1755 50.5313 63.1478C51.247 62.9415 51.5646 62.8882 51.8241 63.1933C52.6814 64.2022 54.043 64.5428 55.377 64.0788C58.2703 63.0748 59.4244 59.4634 59.8845 56.8601C60.2197 56.3605 62.2597 53.1855 61.8733 50.5052C61.5253 48.0953 60.0831 45.642 59.6603 44.9637C60.5982 43.9765 61.8792 42.1136 62.6372 37.514C63.1454 34.4278 63.1199 31.5619 62.5595 28.994L62.5605 28.9911ZM5.08487 55.7168C4.77127 55.3693 4.64641 54.9152 4.70442 54.3278C4.84991 52.8351 6.31964 50.6463 7.50132 49.1023C7.07466 50.6799 6.72173 52.2852 6.58409 53.9121C6.52216 54.6486 6.50053 55.5085 6.57819 56.4247C6.12204 56.3477 5.48696 56.1621 5.08389 55.7168H5.08487ZM33.162 59.7191C32.6843 61.4448 30.8262 65.0453 28.4166 64.5073C28.1414 64.4461 27.871 64.3 27.6144 64.0739C27.5702 64.0354 27.523 63.9821 27.4729 63.9248C27.3126 63.7441 27.0944 63.4963 26.7169 63.4302C26.3954 63.3739 26.0199 63.4855 25.6886 63.5832C25.5696 63.6188 25.4565 63.6523 25.3799 63.6671C23.1305 64.1025 20.6944 64.4095 18.1197 63.7116C17.9791 63.6731 17.7864 63.6207 17.5682 63.6484C17.057 63.7125 16.8034 64.1163 16.6185 64.4115C16.5477 64.525 16.474 64.6415 16.415 64.6919C16.0818 64.9752 15.6394 65.0216 15.3267 65.0098C14.2719 64.9713 13.2632 64.453 12.5967 64.067C10.9943 63.138 9.7703 62.0224 8.95826 60.7498C7.52393 58.5038 7.40891 55.8373 7.56424 53.9961C7.77462 51.5033 8.52767 49.0105 9.25516 46.6006C9.33381 46.339 9.41442 46.0724 9.49503 45.8049C9.65331 45.9767 9.81454 46.1465 9.98068 46.3103C10.1744 46.5019 10.485 46.4989 10.6757 46.3044C10.8664 46.1099 10.8635 45.798 10.6698 45.6064C8.70856 43.6695 7.31846 41.1145 6.75417 38.4104C6.26065 36.044 6.43171 33.5107 7.24866 31.084C8.04497 28.7186 9.41344 26.5605 11.2037 24.8436C11.5359 24.5248 11.8899 24.2385 12.2654 23.9354L12.4001 23.8268C12.519 23.73 12.7186 23.5691 12.8081 23.3045C12.9703 22.8287 12.6724 22.417 12.5446 22.2403C12.4935 22.1702 12.4463 22.0942 12.3961 22.0132C12.3273 21.9026 12.2556 21.7881 12.1651 21.6706C10.4526 19.4375 8.3222 16.6584 6.61162 13.7894C6.44646 13.512 6.27245 13.2287 6.10434 12.9552C5.27363 11.6056 4.41539 10.2097 4.10768 8.70018C3.84421 7.40985 4.00445 6.15901 4.55794 5.17966C5.15861 4.11639 6.25181 3.41643 7.34304 3.3957C9.20305 3.36213 10.9992 4.71762 12.6773 7.42959C14.0704 9.68052 15.2609 12.3796 16.3187 15.682C16.5989 16.5557 16.8446 17.4166 17.0511 18.2399C17.1002 18.4384 17.1543 18.6348 17.2064 18.8244C17.3519 19.3565 17.4896 19.859 17.5377 20.3842C17.5554 20.5768 17.6822 20.7406 17.8631 20.8048C18.044 20.869 18.2456 20.8216 18.3793 20.6834C18.6221 20.4316 18.9898 20.328 19.2552 20.2845C19.3555 20.2678 19.4921 20.2697 19.6356 20.2727C19.9552 20.2766 20.3169 20.2826 20.6404 20.1009C20.8606 19.9775 20.952 19.707 20.8527 19.475C20.7171 19.1581 20.5725 18.8481 20.4329 18.549C20.1095 17.8569 19.8038 17.2033 19.6101 16.4787C19.0959 14.5575 19.0025 12.4122 19.326 9.91943C19.3584 9.66768 19.3869 9.40804 19.4164 9.13259C19.5875 7.54313 19.7802 5.74239 20.9795 4.88644C21.6559 4.40368 22.6449 4.32766 23.5602 4.68899C25.4615 5.43733 26.6166 7.11466 27.0924 9.81577C27.4916 12.0805 27.3215 14.6246 27.1042 16.8144C27.0433 17.4215 26.9607 18.0405 26.8791 18.6447C26.8565 18.8106 26.8427 19.0051 26.828 19.2104C26.7936 19.6902 26.7415 20.4139 26.5438 20.6745C26.4455 20.8038 26.417 20.9746 26.4682 21.1296C26.5193 21.2846 26.6431 21.4041 26.7995 21.4495C27.5397 21.6617 28.2731 22.0932 28.98 22.7299C31.708 25.1892 33.8669 29.4561 34.9041 34.4367C35.314 36.4063 35.6758 38.9386 34.8205 41.0582C34.1697 42.6704 32.525 44.3862 30.4212 45.6479C30.1882 45.7871 30.1115 46.0912 30.2511 46.3252C30.3435 46.4802 30.5067 46.566 30.6738 46.566C30.7594 46.566 30.8468 46.5433 30.9255 46.4959C31.4347 46.1909 31.8938 45.8789 32.3067 45.5669C32.352 45.6775 32.3923 45.7743 32.4159 45.8315C32.5043 46.0843 32.6007 46.3873 32.7 46.7388C31.8309 47.0014 30.9884 47.4092 30.2128 47.9511C30.0574 48.0597 26.421 50.6305 27.1435 52.7452C27.3765 53.4274 28.0726 53.8825 29.0537 53.9941C29.2778 54.0198 29.501 54.0316 29.7222 54.0316C31.0995 54.0316 32.4051 53.5636 33.631 52.9466C33.6438 53.6249 33.6585 54.3268 33.6998 55.0396C33.7027 56.5915 33.5848 58.2126 33.167 59.7201L33.162 59.7191ZM60.1834 54.2498C60.265 52.8045 60.2237 51.4016 60.1637 50.1616C60.148 49.8279 60.1362 49.4903 60.1254 49.1625C60.1116 48.7409 60.0968 48.3154 60.0723 47.886C60.435 48.734 60.7644 49.7015 60.901 50.6434C61.0711 51.8182 60.6611 53.1608 60.1834 54.2498ZM61.6678 37.3491C61.3129 39.5003 60.6366 42.5687 58.8601 44.3714C58.5416 44.6942 58.0766 44.9805 57.5379 45.3113C57.4435 45.3695 57.3471 45.4287 57.2488 45.4899C57.0178 45.6331 56.947 45.9382 57.0896 46.1692C57.183 46.3202 57.3432 46.4031 57.5084 46.4031C57.5968 46.4031 57.6863 46.3795 57.7669 46.3291C57.8633 46.2689 57.9586 46.2106 58.052 46.1534C58.3174 45.9905 58.5652 45.8375 58.7952 45.6815C59.0646 46.8267 59.1029 47.9818 59.1432 49.1951C59.1541 49.5258 59.1659 49.8684 59.1816 50.209C59.2612 51.8676 59.3094 53.8243 59.0607 55.7514C58.3538 61.2178 56.249 62.7283 55.0565 63.1419C54.1137 63.4687 53.1611 63.2416 52.5722 62.5486C51.8772 61.7302 50.9433 61.9987 50.261 62.1951C50.1715 62.2208 50.083 62.2465 49.9936 62.2702C47.3127 62.984 45.2649 63.0234 43.5484 62.3946C43.2633 62.2899 42.6705 62.0727 42.2124 62.4548C41.9981 62.6335 41.9135 62.8675 41.8516 63.0392C41.8408 63.0689 41.83 63.0985 41.8192 63.1271C41.6746 63.4894 41.4456 63.7195 41.1192 63.831C40.4074 64.0719 39.3378 63.7264 38.5936 63.2772C37.3481 62.5259 36.303 61.281 35.6522 59.7715C35.0024 58.2649 34.7723 56.6518 34.678 55.0297C34.676 54.2656 34.6465 53.5192 34.6072 52.8114C34.6072 52.8064 34.6072 52.8015 34.6072 52.7956C34.6072 52.764 34.6062 52.7314 34.6052 52.6988C34.6052 52.6751 34.6003 52.6524 34.5974 52.6297C34.5934 52.5626 34.5895 52.4945 34.5856 52.4283C35.0103 52.1864 35.4241 51.9376 35.8282 51.6938L35.8577 51.676C36.0907 51.5358 36.1654 51.2328 36.0258 50.9988C35.8862 50.7648 35.5844 50.6898 35.3514 50.83L35.3219 50.8477C33.4501 51.9762 31.3286 53.2556 29.1608 53.0098C28.7135 52.9594 28.1925 52.7778 28.0706 52.4214C27.7324 51.4322 29.4459 49.6838 30.7712 48.7577C32.1721 47.7794 33.8109 47.2927 35.3868 47.3845C35.6581 47.4003 35.8901 47.1929 35.9059 46.9205C35.9216 46.648 35.7151 46.415 35.4438 46.3992C34.85 46.3646 34.2493 46.4022 33.6546 46.5078C33.5504 46.1356 33.4481 45.8118 33.3537 45.5373C33.3488 45.5196 33.3429 45.5018 33.3351 45.484C33.2554 45.256 33.1807 45.0625 33.1148 44.9006C34.7723 43.4355 35.4733 42.0632 35.7299 41.4264C36.6854 39.06 36.304 36.3391 35.8646 34.2324C35.2708 31.3832 34.3162 28.7522 33.0991 26.5289C33.1178 26.4993 33.1345 26.4667 33.1473 26.4321C33.457 25.5722 33.7912 25.0411 34.2287 24.4636C34.8205 23.6817 35.5106 22.9689 36.2804 22.3439C37.818 21.0951 39.62 20.2411 41.4888 19.8748C41.7553 19.8225 41.9293 19.5638 41.8772 19.2963C41.8467 19.1383 41.7435 19.012 41.6098 18.9468C41.5164 18.8392 41.2903 18.5174 40.7437 17.5726C40.6965 17.4906 40.6611 17.4294 40.6434 17.3998C40.259 16.768 39.9031 16.1085 39.5866 15.4401C38.9456 14.0876 38.4511 12.6778 38.1168 11.2502C37.0433 6.6625 37.7059 3.81528 38.1965 2.52692C38.3498 2.12413 38.6389 1.57917 39.1501 1.26522C40.0555 0.707427 41.2706 1.09541 41.9135 1.37579C42.931 1.81907 43.7372 2.44597 44.2445 3.1864C45.2924 4.71861 45.3662 6.91425 45.431 8.85222C45.4389 9.09409 45.4468 9.33103 45.4566 9.56303C45.5195 11.0834 45.5333 12.6255 45.4959 14.1468C45.4861 14.5318 45.4507 14.9356 45.4134 15.3631C45.3318 16.2951 45.2472 17.2586 45.4232 18.161C45.4979 18.543 45.7043 18.7207 45.8646 18.8037C46.2755 19.0149 46.7179 18.8096 47.1092 18.6279C47.2488 18.5628 47.3943 18.4956 47.4857 18.4749C47.8337 18.393 48.1857 18.4749 48.6074 18.622C48.6949 18.6526 48.7804 18.6901 48.863 18.7267C49.1216 18.8402 49.4431 18.9824 49.7694 18.8126C50.0998 18.6418 50.1784 18.2656 50.204 18.1422C50.3485 17.4452 50.3563 16.6989 50.3632 15.9762C50.3681 15.4589 50.3731 14.9702 50.4242 14.5091C50.7132 11.9305 51.1094 8.39907 52.821 6.13531C54.3448 4.11935 55.8479 3.0472 57.1662 3.03338C58.1434 3.02351 59.0823 3.58723 59.9661 4.70874C61.1871 6.25773 60.7545 8.12165 60.3878 9.09508C59.7675 10.7428 58.7028 12.279 57.6725 13.7648C57.4975 14.0175 57.3235 14.2683 57.1525 14.518C56.597 15.3315 56.0032 16.1341 55.3878 16.9032C55.1538 17.1964 54.8697 17.4877 54.5699 17.7967C54.0882 18.2923 53.5907 18.8047 53.2496 19.3782C53.0953 19.6379 53.0559 19.8867 53.1336 20.1177C53.2584 20.4869 53.6173 20.6311 53.9063 20.7466C53.9938 20.7811 54.0833 20.8177 54.1619 20.8562L54.2642 20.9065C54.6633 21.104 55.0762 21.3093 55.4714 21.5216C56.4604 22.0537 57.2193 22.568 57.8583 23.1426C59.2327 24.3767 60.9983 26.4292 61.6029 29.2004C62.1358 31.6448 62.1594 34.3864 61.6708 37.3481L61.6678 37.3491Z" fill="#282828"/>
<path d="M49.1422 52.3128C48.7549 52.2121 45.3101 51.366 43.7559 52.5409C43.285 52.8963 43.0274 53.4086 43.0107 54.0207C42.994 54.6042 43.2034 55.1324 43.4324 55.6151C43.4845 55.7257 43.5376 55.8412 43.5927 55.9607C44.0724 57.0042 44.6701 58.3024 45.7987 58.8267C46.0887 58.9609 46.3994 59.036 46.7219 59.0478C46.7543 59.0488 46.7867 59.0498 46.8202 59.0498C47.8347 59.0498 48.8198 58.4594 49.7488 57.2935L49.8619 57.1523C50.5618 56.2825 51.7346 54.8263 51.0347 53.5903C50.5805 52.7887 49.6544 52.4461 49.1422 52.3138V52.3128ZM49.097 56.5313L48.981 56.6764C48.4629 57.327 47.6548 58.0941 46.7582 58.0615C46.5636 58.0546 46.3847 58.0112 46.2106 57.9312C45.4114 57.56 44.8972 56.4444 44.4843 55.548C44.4283 55.4256 44.3732 55.3061 44.3192 55.1936C44.1432 54.8214 43.982 54.4255 43.9918 54.0504C44.0007 53.7364 44.1127 53.5074 44.3457 53.3316C45.2423 52.6544 47.5575 52.9239 48.8965 53.2704C49.5109 53.4294 49.9788 53.7246 50.1794 54.079C50.5481 54.7306 49.6043 55.9034 49.097 56.5333V56.5313Z" fill="#282828"/>
<path d="M25.2393 55.1383C24.6376 54.7049 23.8561 54.7661 23.4432 54.8421C23.1394 54.8974 20.4496 55.4226 19.7241 56.7761C19.4951 57.2036 19.4774 57.6736 19.674 58.1356C19.8568 58.566 20.1793 58.874 20.5008 59.1436C20.5706 59.2028 20.6443 59.265 20.719 59.3292C21.3934 59.9067 22.234 60.6264 23.219 60.6274H23.22C23.4776 60.6274 23.7302 60.577 23.9701 60.4763C24.7409 60.1535 25.2796 59.3963 25.5696 58.2235L25.603 58.0912C25.8036 57.2954 26.1772 55.8146 25.2393 55.1393V55.1383ZM24.6494 57.8473L24.615 57.9845C24.4705 58.57 24.1746 59.3203 23.5926 59.5641C23.4717 59.6145 23.3498 59.6392 23.221 59.6392C22.5967 59.6392 21.9095 59.0498 21.358 58.5769C21.2804 58.5107 21.2047 58.4456 21.1319 58.3844C20.9048 58.1938 20.6807 57.9845 20.5794 57.7466C20.5008 57.561 20.5037 57.406 20.5912 57.2431C20.9717 56.5343 22.6508 55.9893 23.6201 55.8126C24.0615 55.7316 24.444 55.779 24.6681 55.9399C25.0613 56.2233 24.7851 57.3201 24.6514 57.8473H24.6494Z" fill="#282828"/>
</svg>
